<svg width="552" height="62" viewBox="0 0 552 62" fill="none" xmlns="http://www.w3.org/2000/svg">
<mask id="path-1-outside-1_9_2" maskUnits="userSpaceOnUse" x="0" y="0" width="552" height="62" fill="black">
<rect fill="white" width="552" height="62"/>
<path d="M8.06674 20.0346C8.1237 17.2761 8.81677 14.986 10.1459 13.1643C11.5321 11.2645 13.203 10.3147 15.1588 10.3147H16.2412C20.3426 10.3147 23.8459 12.3185 26.7511 16.3262C29.6753 20.3079 31.1374 25.1223 31.1374 30.7695C31.1374 36.3907 29.6753 41.1921 26.7511 45.1738C23.8459 49.1815 20.3426 51.1853 16.2412 51.1853H15.8139C15.1873 51.1853 14.6556 50.873 14.2189 50.2485C13.7822 49.6499 13.5638 48.9212 13.5638 48.0625C13.5638 47.2037 13.7822 46.475 14.2189 45.8764C14.6556 45.2519 15.1873 44.9396 15.8139 44.9396H16.2412C19.0894 44.9396 21.5294 43.5603 23.5611 40.8018C25.5739 38.0172 26.5803 34.6731 26.5803 30.7695C26.5803 26.8399 25.5739 23.4958 23.5611 20.7373C21.5294 17.9527 19.0894 16.5604 16.2412 16.5604H15.1588C14.4563 16.5604 13.8581 16.8987 13.3644 17.5754C12.8708 18.252 12.6239 19.0587 12.6239 19.9956V52.2003C12.6239 54.2301 12.1017 55.9477 11.0574 57.353C10.013 58.7843 8.75981 59.5 7.29771 59.5C5.83562 59.5 4.59189 58.7843 3.56653 57.353C2.52218 55.9477 2 54.2301 2 52.2003V19.9566C2.01899 15.038 3.31019 10.8221 5.8736 7.30889C8.43701 3.76963 11.5321 2 15.1588 2H16.2412C22.0136 2 26.9505 4.81059 31.052 10.4318C35.1534 16.053 37.2042 22.8322 37.2042 30.7695C37.2042 38.6808 35.1534 45.447 31.052 51.0682C26.9505 56.6894 22.0136 59.5 16.2412 59.5H15.8139C15.1873 59.5 14.6556 59.1877 14.2189 58.5631C13.7822 57.9646 13.5638 57.2359 13.5638 56.3771C13.5638 55.5183 13.7822 54.7897 14.2189 54.1911C14.6556 53.5665 15.1873 53.2542 15.8139 53.2542H16.2412C20.7604 53.2542 24.6245 51.0552 27.8335 46.6572C31.0425 42.2591 32.647 36.9632 32.647 30.7695C32.647 24.5498 31.0425 19.2409 27.8335 14.8428C24.6245 10.4448 20.7604 8.24576 16.2412 8.24576H15.1588C12.7853 8.24576 10.7631 9.39081 9.0921 11.6809C7.40215 13.9971 6.55717 16.7686 6.55717 19.9956V52.1612C6.55717 52.8639 6.80402 53.2152 7.29771 53.2152C7.8104 53.2152 8.06674 52.8639 8.06674 52.1612V20.0346Z"/>
<path d="M71.1836 5.12288C71.2026 4.26409 71.4304 3.53542 71.8672 2.93686C72.2849 2.33831 72.8166 2.02602 73.4622 2C74.1078 2 74.6584 2.31229 75.1141 2.93686C75.5319 3.53542 75.7408 4.26409 75.7408 5.12288V36.3907C75.7408 42.7666 74.0983 48.2186 70.8133 52.7468C67.5094 57.2489 63.5408 59.5 58.9077 59.5C55.3379 59.5 52.1004 58.0947 49.1952 55.2841C46.271 52.4735 44.2108 48.7781 43.0146 44.1979C42.9196 43.7815 42.8816 43.3651 42.9006 42.9487C42.9196 42.5584 42.9956 42.155 43.1285 41.7386C43.2804 41.3483 43.4703 41.023 43.6981 40.7627C43.926 40.5025 44.1918 40.3073 44.4956 40.1772H44.5241C45.0938 39.943 45.6539 40.008 46.2046 40.3724C46.7362 40.7367 47.1065 41.3092 47.3154 42.09C48.1888 45.447 49.6889 48.1535 51.8156 50.2094C53.9423 52.2393 56.3063 53.2542 58.9077 53.2542C62.2876 53.2542 65.1833 51.6147 67.5948 48.3357C69.9873 45.0307 71.1836 41.049 71.1836 36.3907V5.12288ZM50.306 37.757C50.0022 37.8871 49.7269 38.0823 49.48 38.3425C49.2522 38.6288 49.0718 38.9671 48.9389 39.3574C48.787 39.7478 48.711 40.1512 48.711 40.5675C48.692 41.01 48.7395 41.4263 48.8534 41.8167C49.6699 44.6533 50.9991 46.9304 52.841 48.648C54.6638 50.3396 56.6861 51.1853 58.9077 51.1853C61.8699 51.1853 64.4048 49.741 66.5125 46.8523C68.6202 43.9637 69.674 40.4765 69.674 36.3907V5.12288C69.674 4.29011 69.4651 3.56144 69.0474 2.93686C68.6107 2.33831 68.0695 2.02602 67.4239 2C66.7593 2 66.2087 2.31229 65.7719 2.93686C65.3352 3.53542 65.1168 4.26409 65.1168 5.12288V36.3907C65.1168 38.7589 64.5092 40.7757 63.294 42.4413C62.0787 44.1068 60.6166 44.9396 58.9077 44.9396C57.6165 44.9396 56.4392 44.4581 55.3759 43.4952C54.3315 42.5063 53.572 41.1921 53.0973 39.5526C52.8694 38.7979 52.4897 38.2384 51.958 37.8741C51.4453 37.5358 50.9042 37.4837 50.3345 37.7179L50.306 37.757ZM63.8351 25.1483C63.8351 24.3156 63.6168 23.5869 63.18 22.9623C62.7243 22.3638 62.1927 22.0645 61.585 22.0645H59.6482C57.7304 22.0645 56.0879 21.1276 54.7208 19.2539C53.3536 17.3542 52.6701 15.1031 52.6701 12.5007V5.12288C52.6701 4.26409 52.4422 3.5224 51.9865 2.89783C51.5498 2.29928 51.0181 2 50.3915 2C49.7649 2 49.2237 2.29928 48.768 2.89783C48.3313 3.5224 48.1129 4.26409 48.1129 5.12288V12.5007C48.1129 16.8207 49.2427 20.5421 51.5023 23.665C53.7619 26.7618 56.4772 28.3103 59.6482 28.3103H61.585C62.2116 28.3103 62.7433 27.998 63.18 27.3734C63.6168 26.7748 63.8351 26.0332 63.8351 25.1483ZM63.8351 33.463C63.8351 32.6302 63.6168 31.9016 63.18 31.277C62.7243 30.6784 62.1927 30.3792 61.585 30.3792H59.6482C56.0595 30.3792 52.9834 28.6225 50.42 25.1093C47.8755 21.6221 46.6033 17.4192 46.6033 12.5007V5.12288C46.6033 4.26409 46.3755 3.5224 45.9198 2.89783C45.483 2.29928 44.9514 2 44.3247 2C43.6981 2 43.157 2.29928 42.7012 2.89783C42.2645 3.5224 42.0462 4.26409 42.0462 5.12288V12.5007C42.0462 19.1368 43.7741 24.81 47.2299 29.5204C50.6668 34.2567 54.8062 36.6249 59.6482 36.6249H61.585C62.2116 36.6249 62.7433 36.3126 63.18 35.6881C63.6168 35.0895 63.8351 34.3478 63.8351 33.463Z"/>
<path d="M114.961 59.5C114.334 59.5 113.803 59.1877 113.366 58.5631C112.91 57.9646 112.682 57.2359 112.682 56.3771V26.1242C112.682 21.2057 111.41 16.9898 108.866 13.4766C106.302 9.98936 103.226 8.24576 99.6374 8.24576C96.0297 8.24576 92.9536 9.98936 90.4092 13.4766C87.8647 16.9898 86.5925 21.2057 86.5925 26.1242V56.3771C86.5925 57.2359 86.3647 57.9646 85.9089 58.5631C85.4722 59.1877 84.9405 59.5 84.3139 59.5C83.6873 59.5 83.1462 59.1877 82.6904 58.5631C82.2537 57.9646 82.0353 57.2359 82.0353 56.3771V26.1242C82.0353 19.4881 83.7538 13.8149 87.1906 9.10455C90.6275 4.36818 94.7764 2 99.6374 2C104.479 2 108.628 4.36818 112.084 9.10455C115.521 13.8149 117.24 19.4881 117.24 26.1242V56.3771C117.24 57.2359 117.012 57.9646 116.556 58.5631C116.119 59.1877 115.588 59.5 114.961 59.5ZM108.894 59.5C108.268 59.5 107.736 59.1877 107.299 58.5631C106.843 57.9646 106.616 57.2359 106.616 56.3771V26.1242C106.616 23.4958 105.932 21.2447 104.565 19.371C103.198 17.4973 101.555 16.5604 99.6374 16.5604C97.7006 16.5604 96.0487 17.4973 94.6815 19.371C93.3143 21.2447 92.6308 23.4958 92.6308 26.1242V56.3771C92.6308 57.2359 92.4124 57.9646 91.9757 58.5631C91.539 59.1877 91.0073 59.5 90.3807 59.5C89.7541 59.5 89.2129 59.1877 88.7572 58.5631C88.3204 57.9646 88.1021 57.2359 88.1021 56.3771V26.1242C88.1021 21.7782 89.2319 18.0568 91.4915 14.9599C93.7321 11.8631 96.4474 10.3147 99.6374 10.3147C102.808 10.3147 105.524 11.8631 107.783 14.9599C110.043 18.0568 111.173 21.7782 111.173 26.1242V56.3771C111.173 57.2359 110.954 57.9646 110.518 58.5631C110.062 59.1877 109.521 59.5 108.894 59.5Z"/>
<path d="M157.058 59.5C156.431 59.5 155.9 59.1877 155.463 58.5631C155.007 57.9646 154.779 57.2359 154.779 56.3771V26.1242C154.779 21.2057 153.507 16.9898 150.963 13.4766C148.399 9.98936 145.323 8.24576 141.734 8.24576C138.127 8.24576 135.05 9.98936 132.506 13.4766C129.962 16.9898 128.689 21.2057 128.689 26.1242V56.3771C128.689 57.2359 128.462 57.9646 128.006 58.5631C127.569 59.1877 127.037 59.5 126.411 59.5C125.784 59.5 125.243 59.1877 124.787 58.5631C124.351 57.9646 124.132 57.2359 124.132 56.3771V26.1242C124.132 19.4881 125.851 13.8149 129.288 9.10455C132.724 4.36818 136.873 2 141.734 2C146.576 2 150.725 4.36818 154.181 9.10455C157.618 13.8149 159.336 19.4881 159.336 26.1242V56.3771C159.336 57.2359 159.109 57.9646 158.653 58.5631C158.216 59.1877 157.684 59.5 157.058 59.5ZM150.991 59.5C150.364 59.5 149.833 59.1877 149.396 58.5631C148.94 57.9646 148.712 57.2359 148.712 56.3771V44.276H138.373C137.747 44.276 137.206 43.9637 136.75 43.3391C136.313 42.7406 136.095 42.0119 136.095 41.1531C136.095 40.2943 136.313 39.5526 136.75 38.928C137.206 38.3295 137.747 38.0302 138.373 38.0302H148.712V35.9613H138.373C137.747 35.9613 137.206 35.649 136.75 35.0244C136.313 34.4259 136.095 33.6972 136.095 32.8384C136.095 31.9796 136.313 31.2379 136.75 30.6134C137.206 30.0148 137.747 29.7155 138.373 29.7155H148.712V26.1242C148.712 23.4958 148.029 21.2447 146.662 19.371C145.295 17.4973 143.652 16.5604 141.734 16.5604C139.798 16.5604 138.146 17.4973 136.778 19.371C135.411 21.2447 134.728 23.4958 134.728 26.1242V56.3771C134.728 57.2359 134.509 57.9646 134.073 58.5631C133.636 59.1877 133.104 59.5 132.478 59.5C131.851 59.5 131.31 59.1877 130.854 58.5631C130.417 57.9646 130.199 57.2359 130.199 56.3771V26.1242C130.199 21.7782 131.329 18.0568 133.588 14.9599C135.829 11.8631 138.544 10.3147 141.734 10.3147C144.905 10.3147 147.621 11.8631 149.88 14.9599C152.14 18.0568 153.27 21.7782 153.27 26.1242V56.3771C153.27 57.2359 153.051 57.9646 152.615 58.5631C152.159 59.1877 151.618 59.5 150.991 59.5Z"/>
<path d="M194.028 58.6022C193.591 59.2007 193.05 59.5 192.404 59.5C191.797 59.5 191.265 59.2007 190.809 58.6022C190.373 57.9776 190.154 57.2489 190.154 56.4162V21.518C190.154 17.8746 189.205 14.7518 187.306 12.1494C185.407 9.54696 183.129 8.24576 180.47 8.24576C177.812 8.24576 175.533 9.54696 173.635 12.1494C171.736 14.7518 170.786 17.8746 170.786 21.518V56.4162C170.786 57.2749 170.558 58.0036 170.103 58.6022C169.666 59.2007 169.125 59.5 168.479 59.5C167.872 59.5 167.34 59.2007 166.884 58.6022C166.447 57.9776 166.229 57.2489 166.229 56.4162V21.518C166.229 16.157 167.625 11.5638 170.416 7.73829C173.207 3.91276 176.559 2 180.47 2C184.382 2 187.733 3.91276 190.525 7.73829C193.316 11.5638 194.711 16.157 194.711 21.518V56.4162C194.711 57.2749 194.484 58.0036 194.028 58.6022ZM187.961 58.6022C187.524 59.2007 186.983 59.5 186.338 59.5C185.73 59.5 185.198 59.2007 184.743 58.6022C184.306 57.9776 184.088 57.2489 184.088 56.4162V21.518C184.088 20.1647 183.736 18.9937 183.034 18.0048C182.312 17.0419 181.458 16.5604 180.47 16.5604C179.483 16.5604 178.628 17.0419 177.907 18.0048C177.204 18.9937 176.853 20.1647 176.853 21.518V56.4162C176.853 57.2749 176.625 58.0036 176.169 58.6022C175.733 59.2007 175.192 59.5 174.546 59.5C173.938 59.5 173.407 59.2007 172.951 58.6022C172.514 57.9776 172.296 57.2489 172.296 56.4162V21.518C172.296 18.4472 173.093 15.8057 174.688 13.5937C176.302 11.4077 178.23 10.3147 180.47 10.3147C182.711 10.3147 184.629 11.4077 186.224 13.5937C187.838 15.8057 188.645 18.4472 188.645 21.518V56.4162C188.645 57.2749 188.417 58.0036 187.961 58.6022ZM212.257 58.6022C211.82 59.2007 211.288 59.5 210.662 59.5C210.035 59.5 209.503 59.2007 209.067 58.6022C208.611 57.9776 208.383 57.2489 208.383 56.4162V21.518C208.383 17.8746 207.434 14.7518 205.535 12.1494C203.636 9.54696 201.357 8.24576 198.699 8.24576C197.901 8.24576 197.113 8.37588 196.335 8.63612C195.537 8.92238 194.787 9.32575 194.085 9.84623L193.515 10.2756L193.116 9.53394C192.832 8.98744 192.528 8.46696 192.205 7.9725C191.882 7.45203 191.54 6.95757 191.18 6.48914L190.468 5.55227L191.294 4.84963C192.414 3.91276 193.601 3.21012 194.854 2.74168C196.107 2.24723 197.389 2 198.699 2C202.611 2 205.962 3.91276 208.753 7.73829C211.545 11.5638 212.94 16.157 212.94 21.518V56.4162C212.94 57.2749 212.712 58.0036 212.257 58.6022ZM206.19 58.6022C205.753 59.2007 205.221 59.5 204.595 59.5C203.968 59.5 203.437 59.2007 203 58.6022C202.544 57.9776 202.316 57.2489 202.316 56.4162V21.518C202.316 20.1647 201.965 18.9937 201.262 18.0048C200.541 17.0419 199.686 16.5604 198.699 16.5604C198.338 16.5604 197.987 16.6255 197.645 16.7556C197.303 16.9117 196.981 17.1329 196.677 17.4192L195.765 18.239L195.509 16.7946C195.414 16.144 195.281 15.4934 195.11 14.8428C194.939 14.1922 194.759 13.5677 194.569 12.9691L194.256 12.0713L194.911 11.6029C195.499 11.1865 196.107 10.8612 196.734 10.627C197.379 10.4188 198.034 10.3147 198.699 10.3147C200.94 10.3147 202.867 11.4077 204.481 13.5937C206.076 15.8057 206.873 18.4472 206.873 21.518V56.4162C206.873 57.2749 206.646 58.0036 206.19 58.6022Z"/>
<path d="M228.121 59.5C227.495 59.5 226.953 59.1877 226.498 58.5631C226.061 57.9646 225.843 57.2359 225.843 56.3771V5.08384C225.843 4.22505 226.061 3.49638 226.498 2.89783C226.934 2.29928 227.476 2 228.121 2C228.748 2 229.279 2.31229 229.716 2.93686C230.172 3.53542 230.4 4.25107 230.4 5.08384V56.3771C230.4 57.2359 230.172 57.9646 229.716 58.5631C229.279 59.1877 228.748 59.5 228.121 59.5ZM222.054 59.5C221.428 59.5 220.887 59.1877 220.431 58.5631C219.994 57.9646 219.776 57.2359 219.776 56.3771V5.08384C219.776 4.25107 219.994 3.53542 220.431 2.93686C220.868 2.31229 221.399 2 222.026 2C222.653 2 223.194 2.31229 223.649 2.93686C224.105 3.53542 224.333 4.25107 224.333 5.08384V56.3771C224.333 57.2359 224.105 57.9646 223.649 58.5631C223.213 59.1877 222.681 59.5 222.054 59.5Z"/>
<path d="M257.088 59.5C251.315 59.5 246.378 56.6894 242.277 51.0682C238.175 45.447 236.125 38.6808 236.125 30.7695C236.125 22.8322 238.175 16.053 242.277 10.4318C246.378 4.81059 251.315 2 257.088 2C262.253 2 266.8 4.29011 270.731 8.87033C271.186 9.49491 271.443 10.2236 271.5 11.0563C271.5 12.0192 271.281 12.8 270.845 13.3985C270.389 13.9971 269.876 14.3224 269.307 14.3744C268.737 14.4004 268.224 14.1532 267.769 13.6327C264.693 10.0414 261.132 8.24576 257.088 8.24576C252.569 8.24576 248.704 10.4448 245.495 14.8428C242.286 19.2409 240.682 24.5498 240.682 30.7695C240.682 36.9632 242.286 42.2591 245.495 46.6572C248.704 51.0552 252.569 53.2542 257.088 53.2542C261.132 53.2542 264.683 51.4586 267.74 47.8673C268.196 47.3468 268.709 47.0996 269.278 47.1256C269.848 47.1516 270.351 47.4379 270.788 47.9844L270.93 48.2576C271.31 48.8302 271.5 49.5328 271.5 50.3656C271.443 51.2764 271.186 52.0181 270.731 52.5906C266.819 57.1969 262.272 59.5 257.088 59.5ZM257.088 51.1853C252.986 51.1853 249.473 49.1815 246.549 45.1738C243.644 41.1921 242.191 36.3907 242.191 30.7695C242.191 25.1223 243.644 20.3079 246.549 16.3262C249.473 12.3185 252.986 10.3147 257.088 10.3147C260.544 10.3147 263.62 11.772 266.316 14.6867C266.829 15.2072 267.114 15.9489 267.17 16.9117C267.227 17.8226 267.009 18.6163 266.515 19.2929C266.098 19.8655 265.604 20.1908 265.034 20.2688C264.465 20.3209 263.952 20.0997 263.496 19.6052C261.654 17.5754 259.518 16.5604 257.088 16.5604C254.24 16.5604 251.8 17.9527 249.768 20.7373C247.755 23.4958 246.749 26.8399 246.749 30.7695C246.749 34.6731 247.755 38.0172 249.768 40.8018C251.8 43.5603 254.24 44.9396 257.088 44.9396C259.461 44.9396 261.597 43.9246 263.496 41.8948C263.952 41.4263 264.465 41.2181 265.034 41.2702C265.604 41.3222 266.088 41.6215 266.487 42.168C267 42.8707 267.227 43.6774 267.17 44.5883C267.114 45.5511 266.819 46.2928 266.288 46.8133C263.61 49.728 260.544 51.1853 257.088 51.1853Z"/>
<path d="M297.02 59.5C291.248 59.5 286.311 56.6894 282.209 51.0682C278.108 45.447 276.057 38.6808 276.057 30.7695C276.057 22.8322 278.108 16.053 282.209 10.4318C286.311 4.81059 291.248 2 297.02 2C302.811 2 307.748 4.81059 311.831 10.4318C315.932 16.053 317.983 22.8322 317.983 30.7695C317.983 38.6808 315.932 45.447 311.831 51.0682C307.748 56.6894 302.811 59.5 297.02 59.5ZM297.02 8.24576C292.501 8.24576 288.637 10.4448 285.428 14.8428C282.219 19.2409 280.614 24.5498 280.614 30.7695C280.614 36.9632 282.219 42.2591 285.428 46.6572C288.637 51.0552 292.501 53.2542 297.02 53.2542C301.558 53.2542 305.432 51.0552 308.641 46.6572C311.85 42.2591 313.454 36.9632 313.454 30.7695C313.454 24.5498 311.85 19.2409 308.641 14.8428C305.432 10.4448 301.558 8.24576 297.02 8.24576ZM297.02 51.1853C292.919 51.1853 289.406 49.1815 286.482 45.1738C283.576 41.1921 282.124 36.3907 282.124 30.7695C282.124 25.1223 283.576 20.3079 286.482 16.3262C289.406 12.3185 292.919 10.3147 297.02 10.3147C301.14 10.3147 304.653 12.3185 307.558 16.3262C310.464 20.3079 311.916 25.1223 311.916 30.7695C311.916 36.3907 310.464 41.1921 307.558 45.1738C304.653 49.1815 301.14 51.1853 297.02 51.1853ZM297.02 16.5604C294.172 16.5604 291.732 17.9527 289.7 20.7373C287.668 23.4958 286.652 26.8399 286.652 30.7695C286.652 34.6731 287.668 38.0172 289.7 40.8018C291.732 43.5603 294.172 44.9396 297.02 44.9396C299.887 44.9396 302.327 43.5603 304.34 40.8018C306.372 38.0172 307.388 34.6731 307.388 30.7695C307.388 26.8399 306.372 23.4958 304.34 20.7373C302.327 17.9527 299.887 16.5604 297.02 16.5604Z"/>
<path d="M356.605 59.5C355.978 59.5 355.447 59.1877 355.01 58.5631C354.554 57.9646 354.326 57.2359 354.326 56.3771V26.1242C354.326 21.2057 353.054 16.9898 350.51 13.4766C347.946 9.98936 344.87 8.24576 341.282 8.24576C337.674 8.24576 334.598 9.98936 332.053 13.4766C329.509 16.9898 328.237 21.2057 328.237 26.1242V56.3771C328.237 57.2359 328.009 57.9646 327.553 58.5631C327.116 59.1877 326.585 59.5 325.958 59.5C325.331 59.5 324.79 59.1877 324.335 58.5631C323.898 57.9646 323.679 57.2359 323.679 56.3771V26.1242C323.679 19.4881 325.398 13.8149 328.835 9.10455C332.272 4.36818 336.421 2 341.282 2C346.124 2 350.272 4.36818 353.728 9.10455C357.165 13.8149 358.884 19.4881 358.884 26.1242V56.3771C358.884 57.2359 358.656 57.9646 358.2 58.5631C357.763 59.1877 357.232 59.5 356.605 59.5ZM350.538 59.5C349.912 59.5 349.38 59.1877 348.943 58.5631C348.488 57.9646 348.26 57.2359 348.26 56.3771V26.1242C348.26 23.4958 347.576 21.2447 346.209 19.371C344.842 17.4973 343.199 16.5604 341.282 16.5604C339.345 16.5604 337.693 17.4973 336.326 19.371C334.958 21.2447 334.275 23.4958 334.275 26.1242V56.3771C334.275 57.2359 334.056 57.9646 333.62 58.5631C333.183 59.1877 332.651 59.5 332.025 59.5C331.398 59.5 330.857 59.1877 330.401 58.5631C329.965 57.9646 329.746 57.2359 329.746 56.3771V26.1242C329.746 21.7782 330.876 18.0568 333.136 14.9599C335.376 11.8631 338.091 10.3147 341.282 10.3147C344.453 10.3147 347.168 11.8631 349.427 14.9599C351.687 18.0568 352.817 21.7782 352.817 26.1242V56.3771C352.817 57.2359 352.598 57.9646 352.162 58.5631C351.706 59.1877 351.165 59.5 350.538 59.5Z"/>
<path d="M392.436 59.5C389.17 59.5 386.293 58.0166 383.806 55.0499C381.318 52.0832 379.866 48.3878 379.448 43.9637C379.334 43.0268 379.505 42.2071 379.961 41.5044C380.435 40.7757 381.005 40.4114 381.669 40.4114H381.698C382.268 40.4114 382.761 40.6716 383.179 41.1921C383.597 41.7126 383.853 42.3502 383.948 43.1049C384.214 45.9935 385.163 48.4138 386.796 50.3656C388.41 52.2914 390.29 53.2542 392.436 53.2542C394.809 53.2542 396.832 52.1092 398.503 49.8191C400.173 47.5029 401.009 44.7184 401.009 41.4654C401.009 37.848 400.344 35.1676 399.015 33.424C398.085 32.2008 396.537 31.2119 394.373 30.4572C394.107 30.3531 393.661 30.197 393.034 29.9888C390.546 29.1821 388.819 28.3103 387.85 27.3734C386.179 25.7599 385.344 23.3006 385.344 19.9956C385.344 17.3411 386.037 15.064 387.423 13.1643C388.809 11.2645 390.48 10.3147 392.436 10.3147C393.974 10.3147 395.36 10.9262 396.594 12.1494C397.828 13.3725 398.683 14.986 399.158 16.9898C399.385 18.0308 399.272 18.9676 398.816 19.8004C398.417 20.6332 397.809 21.0496 396.993 21.0496C395.892 21.0496 395.17 20.3469 394.828 18.9416C394.449 17.3542 393.651 16.5604 392.436 16.5604C391.733 16.5604 391.135 16.8987 390.641 17.5754C390.148 18.252 389.901 19.0587 389.901 19.9956C389.901 21.1406 390.319 22.0385 391.154 22.6891C391.743 23.1315 392.929 23.665 394.714 24.2895C397.164 25.1483 398.977 26.0201 400.154 26.905C403.762 29.6114 405.566 34.4649 405.566 41.4654C405.566 46.436 404.284 50.6779 401.721 54.1911C399.158 57.7304 396.063 59.5 392.436 59.5ZM392.436 51.1853C390.917 51.1853 389.531 50.5738 388.277 49.3506C387.043 48.1275 386.179 46.514 385.685 44.5102C385.477 43.4692 385.6 42.5324 386.056 41.6996C386.473 40.8408 387.081 40.4114 387.879 40.4114H387.907C388.989 40.4114 389.701 41.1401 390.043 42.5974C390.423 44.1589 391.221 44.9396 392.436 44.9396C393.138 44.9396 393.736 44.6013 394.23 43.9246C394.705 43.248 394.942 42.4283 394.942 41.4654C394.942 40.3203 394.534 39.4355 393.717 38.8109C393.129 38.3425 391.952 37.809 390.186 37.2105C386.236 35.8312 383.511 34.0095 382.011 31.7454C380.207 28.9609 379.305 25.0442 379.305 19.9956C379.305 15.051 380.587 10.8221 383.151 7.30889C385.714 3.76963 388.809 2 392.436 2C395.702 2 398.578 3.48337 401.066 6.4501C403.534 9.41684 404.996 13.1122 405.452 17.5363C405.509 18.5252 405.329 19.345 404.911 19.9956C404.455 20.6982 403.886 21.0496 403.202 21.0496C402.613 21.0496 402.11 20.7893 401.693 20.2688C401.256 19.7744 400.999 19.1498 400.924 18.3951C400.639 15.5064 399.689 13.0862 398.075 11.1344C396.461 9.20864 394.581 8.24576 392.436 8.24576C390.062 8.24576 388.04 9.39081 386.369 11.6809C384.679 13.9971 383.834 16.7686 383.834 19.9956C383.834 23.9773 384.67 26.8529 386.341 28.6225C387.328 29.6635 389.16 30.6264 391.838 31.5112C394.306 32.3179 396.034 33.2028 397.021 34.1656C398.673 35.7531 399.499 38.1864 399.499 41.4654C399.499 44.1458 398.806 46.436 397.42 48.3357C396.053 50.2355 394.392 51.1853 392.436 51.1853Z"/>
<path d="M439.09 58.6022C438.653 59.2007 438.112 59.5 437.466 59.5C436.859 59.5 436.327 59.2007 435.871 58.6022C435.435 57.9776 435.216 57.2489 435.216 56.4162V21.518C435.216 17.8746 434.267 14.7518 432.368 12.1494C430.469 9.54696 428.191 8.24576 425.532 8.24576C422.874 8.24576 420.595 9.54696 418.696 12.1494C416.798 14.7518 415.848 17.8746 415.848 21.518V56.4162C415.848 57.2749 415.62 58.0036 415.165 58.6022C414.728 59.2007 414.187 59.5 413.541 59.5C412.934 59.5 412.402 59.2007 411.946 58.6022C411.509 57.9776 411.291 57.2489 411.291 56.4162V21.518C411.291 16.157 412.687 11.5638 415.478 7.73829C418.269 3.91276 421.621 2 425.532 2C429.444 2 432.795 3.91276 435.587 7.73829C438.378 11.5638 439.773 16.157 439.773 21.518V56.4162C439.773 57.2749 439.546 58.0036 439.09 58.6022ZM433.023 58.6022C432.586 59.2007 432.045 59.5 431.4 59.5C430.792 59.5 430.26 59.2007 429.805 58.6022C429.368 57.9776 429.149 57.2489 429.149 56.4162V21.518C429.149 20.1647 428.798 18.9937 428.096 18.0048C427.374 17.0419 426.52 16.5604 425.532 16.5604C424.545 16.5604 423.69 17.0419 422.969 18.0048C422.266 18.9937 421.915 20.1647 421.915 21.518V56.4162C421.915 57.2749 421.687 58.0036 421.231 58.6022C420.795 59.2007 420.254 59.5 419.608 59.5C419 59.5 418.469 59.2007 418.013 58.6022C417.576 57.9776 417.358 57.2489 417.358 56.4162V21.518C417.358 18.4472 418.155 15.8057 419.75 13.5937C421.364 11.4077 423.292 10.3147 425.532 10.3147C427.773 10.3147 429.691 11.4077 431.286 13.5937C432.9 15.8057 433.707 18.4472 433.707 21.518V56.4162C433.707 57.2749 433.479 58.0036 433.023 58.6022ZM457.319 58.6022C456.882 59.2007 456.35 59.5 455.724 59.5C455.097 59.5 454.565 59.2007 454.129 58.6022C453.673 57.9776 453.445 57.2489 453.445 56.4162V21.518C453.445 17.8746 452.496 14.7518 450.597 12.1494C448.698 9.54696 446.419 8.24576 443.761 8.24576C442.963 8.24576 442.175 8.37588 441.397 8.63612C440.599 8.92238 439.849 9.32575 439.147 9.84623L438.577 10.2756L438.178 9.53394C437.894 8.98744 437.59 8.46696 437.267 7.9725C436.944 7.45203 436.602 6.95757 436.242 6.48914L435.53 5.55227L436.356 4.84963C437.476 3.91276 438.663 3.21012 439.916 2.74168C441.169 2.24723 442.451 2 443.761 2C447.673 2 451.024 3.91276 453.815 7.73829C456.606 11.5638 458.002 16.157 458.002 21.518V56.4162C458.002 57.2749 457.774 58.0036 457.319 58.6022ZM451.252 58.6022C450.815 59.2007 450.283 59.5 449.657 59.5C449.03 59.5 448.498 59.2007 448.062 58.6022C447.606 57.9776 447.378 57.2489 447.378 56.4162V21.518C447.378 20.1647 447.027 18.9937 446.324 18.0048C445.603 17.0419 444.748 16.5604 443.761 16.5604C443.4 16.5604 443.049 16.6255 442.707 16.7556C442.365 16.9117 442.043 17.1329 441.739 17.4192L440.827 18.239L440.571 16.7946C440.476 16.144 440.343 15.4934 440.172 14.8428C440.001 14.1922 439.821 13.5677 439.631 12.9691L439.318 12.0713L439.973 11.6029C440.561 11.1865 441.169 10.8612 441.796 10.627C442.441 10.4188 443.096 10.3147 443.761 10.3147C446.002 10.3147 447.929 11.4077 449.543 13.5937C451.138 15.8057 451.935 18.4472 451.935 21.518V56.4162C451.935 57.2749 451.708 58.0036 451.252 58.6022Z"/>
<path d="M473.183 59.5C472.557 59.5 472.015 59.1877 471.56 58.5631C471.123 57.9646 470.905 57.2359 470.905 56.3771V5.08384C470.905 4.22505 471.123 3.49638 471.56 2.89783C471.996 2.29928 472.538 2 473.183 2C473.81 2 474.341 2.31229 474.778 2.93686C475.234 3.53542 475.462 4.25107 475.462 5.08384V56.3771C475.462 57.2359 475.234 57.9646 474.778 58.5631C474.341 59.1877 473.81 59.5 473.183 59.5ZM467.116 59.5C466.49 59.5 465.949 59.1877 465.493 58.5631C465.056 57.9646 464.838 57.2359 464.838 56.3771V5.08384C464.838 4.25107 465.056 3.53542 465.493 2.93686C465.93 2.31229 466.461 2 467.088 2C467.715 2 468.256 2.31229 468.711 2.93686C469.167 3.53542 469.395 4.25107 469.395 5.08384V56.3771C469.395 57.2359 469.167 57.9646 468.711 58.5631C468.275 59.1877 467.743 59.5 467.116 59.5Z"/>
<path d="M498.162 59.5C497.536 59.5 497.004 59.2007 496.567 58.6022C496.13 57.9776 495.912 57.2359 495.912 56.3771V17.4973C495.912 16.7946 495.665 16.4433 495.172 16.4433H495.143C494.63 16.4433 494.374 16.7946 494.374 17.4973V56.3771C494.374 57.2359 494.156 57.9776 493.719 58.6022C493.282 59.2007 492.751 59.5 492.124 59.5C491.497 59.5 490.956 59.2007 490.5 58.6022C490.064 57.9776 489.845 57.2359 489.845 56.3771V16.5604H481.472C480.845 16.5604 480.304 16.2481 479.848 15.6236C479.411 15.025 479.193 14.2963 479.193 13.4375C479.193 12.5788 479.411 11.8371 479.848 11.2125C480.304 10.6139 480.845 10.3147 481.472 10.3147H508.815C509.441 10.3147 509.982 10.6139 510.438 11.2125C510.875 11.8371 511.093 12.5788 511.093 13.4375C511.093 14.2963 510.875 15.025 510.438 15.6236C509.982 16.2481 509.441 16.5604 508.815 16.5604H500.441V56.3771C500.441 57.2359 500.222 57.9776 499.786 58.6022C499.349 59.2007 498.808 59.5 498.162 59.5ZM481.472 8.24576C480.845 8.24576 480.304 7.93347 479.848 7.30889C479.411 6.71034 479.193 5.98167 479.193 5.12288C479.193 4.26409 479.411 3.5224 479.848 2.89783C480.304 2.29928 480.845 2 481.472 2H508.815C509.441 2 509.982 2.29928 510.438 2.89783C510.875 3.5224 511.093 4.26409 511.093 5.12288C511.093 5.98167 510.875 6.71034 510.438 7.30889C509.982 7.93347 509.441 8.24576 508.815 8.24576H481.472Z"/>
<path d="M523.141 59.5C522.515 59.5 521.973 59.1877 521.518 58.5631C521.081 57.9646 520.863 57.2359 520.863 56.3771V5.08384C520.863 4.22505 521.081 3.49638 521.518 2.89783C521.954 2.29928 522.496 2 523.141 2C523.768 2 524.299 2.31229 524.736 2.93686C525.173 3.53542 525.391 4.25107 525.391 5.08384V56.3771C525.391 57.2359 525.173 57.9646 524.736 58.5631C524.299 59.1877 523.768 59.5 523.141 59.5ZM541.655 59.5C541.028 59.5 540.496 59.1877 540.06 58.5631C539.604 57.9646 539.376 57.2359 539.376 56.3771V36.1955H529.037C528.41 36.1955 527.869 35.8832 527.414 35.2587C526.977 34.6601 526.758 33.9314 526.758 33.0726C526.758 32.2138 526.977 31.4722 527.414 30.8476C527.869 30.249 528.41 29.9498 529.037 29.9498H539.376V27.8809H529.037C528.41 27.8809 527.869 27.5686 527.414 26.944C526.977 26.3454 526.758 25.6168 526.758 24.758C526.758 23.8992 526.977 23.1575 527.414 22.5329C527.869 21.9344 528.41 21.6351 529.037 21.6351H539.376V5.08384C539.376 4.25107 539.594 3.53542 540.031 2.93686C540.468 2.31229 541 2 541.626 2C542.272 2 542.813 2.29928 543.25 2.89783C543.705 3.49638 543.933 4.22505 543.933 5.08384V56.3771C543.933 57.2359 543.705 57.9646 543.25 58.5631C542.813 59.1877 542.281 59.5 541.655 59.5ZM517.074 59.5C516.448 59.5 515.907 59.1877 515.451 58.5631C515.014 57.9646 514.796 57.2359 514.796 56.3771V5.08384C514.796 4.25107 515.014 3.53542 515.451 2.93686C515.888 2.31229 516.419 2 517.046 2C517.692 2 518.233 2.29928 518.669 2.89783C519.125 3.49638 519.353 4.22505 519.353 5.08384V56.3771C519.353 57.2359 519.125 57.9646 518.669 58.5631C518.233 59.1877 517.701 59.5 517.074 59.5ZM547.721 59.5C547.095 59.5 546.563 59.1877 546.126 58.5631C545.671 57.9646 545.443 57.2359 545.443 56.3771V5.08384C545.443 4.25107 545.661 3.53542 546.098 2.93686C546.535 2.31229 547.066 2 547.693 2C548.339 2 548.88 2.29928 549.316 2.89783C549.772 3.49638 550 4.22505 550 5.08384V56.3771C550 57.2359 549.772 57.9646 549.316 58.5631C548.88 59.1877 548.348 59.5 547.721 59.5Z"/>
</mask>
<path d="M8.06674 20.0346C8.1237 17.2761 8.81677 14.986 10.1459 13.1643C11.5321 11.2645 13.203 10.3147 15.1588 10.3147H16.2412C20.3426 10.3147 23.8459 12.3185 26.7511 16.3262C29.6753 20.3079 31.1374 25.1223 31.1374 30.7695C31.1374 36.3907 29.6753 41.1921 26.7511 45.1738C23.8459 49.1815 20.3426 51.1853 16.2412 51.1853H15.8139C15.1873 51.1853 14.6556 50.873 14.2189 50.2485C13.7822 49.6499 13.5638 48.9212 13.5638 48.0625C13.5638 47.2037 13.7822 46.475 14.2189 45.8764C14.6556 45.2519 15.1873 44.9396 15.8139 44.9396H16.2412C19.0894 44.9396 21.5294 43.5603 23.5611 40.8018C25.5739 38.0172 26.5803 34.6731 26.5803 30.7695C26.5803 26.8399 25.5739 23.4958 23.5611 20.7373C21.5294 17.9527 19.0894 16.5604 16.2412 16.5604H15.1588C14.4563 16.5604 13.8581 16.8987 13.3644 17.5754C12.8708 18.252 12.6239 19.0587 12.6239 19.9956V52.2003C12.6239 54.2301 12.1017 55.9477 11.0574 57.353C10.013 58.7843 8.75981 59.5 7.29771 59.5C5.83562 59.5 4.59189 58.7843 3.56653 57.353C2.52218 55.9477 2 54.2301 2 52.2003V19.9566C2.01899 15.038 3.31019 10.8221 5.8736 7.30889C8.43701 3.76963 11.5321 2 15.1588 2H16.2412C22.0136 2 26.9505 4.81059 31.052 10.4318C35.1534 16.053 37.2042 22.8322 37.2042 30.7695C37.2042 38.6808 35.1534 45.447 31.052 51.0682C26.9505 56.6894 22.0136 59.5 16.2412 59.5H15.8139C15.1873 59.5 14.6556 59.1877 14.2189 58.5631C13.7822 57.9646 13.5638 57.2359 13.5638 56.3771C13.5638 55.5183 13.7822 54.7897 14.2189 54.1911C14.6556 53.5665 15.1873 53.2542 15.8139 53.2542H16.2412C20.7604 53.2542 24.6245 51.0552 27.8335 46.6572C31.0425 42.2591 32.647 36.9632 32.647 30.7695C32.647 24.5498 31.0425 19.2409 27.8335 14.8428C24.6245 10.4448 20.7604 8.24576 16.2412 8.24576H15.1588C12.7853 8.24576 10.7631 9.39081 9.0921 11.6809C7.40215 13.9971 6.55717 16.7686 6.55717 19.9956V52.1612C6.55717 52.8639 6.80402 53.2152 7.29771 53.2152C7.8104 53.2152 8.06674 52.8639 8.06674 52.1612V20.0346Z" fill="url(#paint0_linear_9_2)"/>
<path d="M71.1836 5.12288C71.2026 4.26409 71.4304 3.53542 71.8672 2.93686C72.2849 2.33831 72.8166 2.02602 73.4622 2C74.1078 2 74.6584 2.31229 75.1141 2.93686C75.5319 3.53542 75.7408 4.26409 75.7408 5.12288V36.3907C75.7408 42.7666 74.0983 48.2186 70.8133 52.7468C67.5094 57.2489 63.5408 59.5 58.9077 59.5C55.3379 59.5 52.1004 58.0947 49.1952 55.2841C46.271 52.4735 44.2108 48.7781 43.0146 44.1979C42.9196 43.7815 42.8816 43.3651 42.9006 42.9487C42.9196 42.5584 42.9956 42.155 43.1285 41.7386C43.2804 41.3483 43.4703 41.023 43.6981 40.7627C43.926 40.5025 44.1918 40.3073 44.4956 40.1772H44.5241C45.0938 39.943 45.6539 40.008 46.2046 40.3724C46.7362 40.7367 47.1065 41.3092 47.3154 42.09C48.1888 45.447 49.6889 48.1535 51.8156 50.2094C53.9423 52.2393 56.3063 53.2542 58.9077 53.2542C62.2876 53.2542 65.1833 51.6147 67.5948 48.3357C69.9873 45.0307 71.1836 41.049 71.1836 36.3907V5.12288ZM50.306 37.757C50.0022 37.8871 49.7269 38.0823 49.48 38.3425C49.2522 38.6288 49.0718 38.9671 48.9389 39.3574C48.787 39.7478 48.711 40.1512 48.711 40.5675C48.692 41.01 48.7395 41.4263 48.8534 41.8167C49.6699 44.6533 50.9991 46.9304 52.841 48.648C54.6638 50.3396 56.6861 51.1853 58.9077 51.1853C61.8699 51.1853 64.4048 49.741 66.5125 46.8523C68.6202 43.9637 69.674 40.4765 69.674 36.3907V5.12288C69.674 4.29011 69.4651 3.56144 69.0474 2.93686C68.6107 2.33831 68.0695 2.02602 67.4239 2C66.7593 2 66.2087 2.31229 65.7719 2.93686C65.3352 3.53542 65.1168 4.26409 65.1168 5.12288V36.3907C65.1168 38.7589 64.5092 40.7757 63.294 42.4413C62.0787 44.1068 60.6166 44.9396 58.9077 44.9396C57.6165 44.9396 56.4392 44.4581 55.3759 43.4952C54.3315 42.5063 53.572 41.1921 53.0973 39.5526C52.8694 38.7979 52.4897 38.2384 51.958 37.8741C51.4453 37.5358 50.9042 37.4837 50.3345 37.7179L50.306 37.757ZM63.8351 25.1483C63.8351 24.3156 63.6168 23.5869 63.18 22.9623C62.7243 22.3638 62.1927 22.0645 61.585 22.0645H59.6482C57.7304 22.0645 56.0879 21.1276 54.7208 19.2539C53.3536 17.3542 52.6701 15.1031 52.6701 12.5007V5.12288C52.6701 4.26409 52.4422 3.5224 51.9865 2.89783C51.5498 2.29928 51.0181 2 50.3915 2C49.7649 2 49.2237 2.29928 48.768 2.89783C48.3313 3.5224 48.1129 4.26409 48.1129 5.12288V12.5007C48.1129 16.8207 49.2427 20.5421 51.5023 23.665C53.7619 26.7618 56.4772 28.3103 59.6482 28.3103H61.585C62.2116 28.3103 62.7433 27.998 63.18 27.3734C63.6168 26.7748 63.8351 26.0332 63.8351 25.1483ZM63.8351 33.463C63.8351 32.6302 63.6168 31.9016 63.18 31.277C62.7243 30.6784 62.1927 30.3792 61.585 30.3792H59.6482C56.0595 30.3792 52.9834 28.6225 50.42 25.1093C47.8755 21.6221 46.6033 17.4192 46.6033 12.5007V5.12288C46.6033 4.26409 46.3755 3.5224 45.9198 2.89783C45.483 2.29928 44.9514 2 44.3247 2C43.6981 2 43.157 2.29928 42.7012 2.89783C42.2645 3.5224 42.0462 4.26409 42.0462 5.12288V12.5007C42.0462 19.1368 43.7741 24.81 47.2299 29.5204C50.6668 34.2567 54.8062 36.6249 59.6482 36.6249H61.585C62.2116 36.6249 62.7433 36.3126 63.18 35.6881C63.6168 35.0895 63.8351 34.3478 63.8351 33.463Z" fill="url(#paint1_linear_9_2)"/>
<path d="M114.961 59.5C114.334 59.5 113.803 59.1877 113.366 58.5631C112.91 57.9646 112.682 57.2359 112.682 56.3771V26.1242C112.682 21.2057 111.41 16.9898 108.866 13.4766C106.302 9.98936 103.226 8.24576 99.6374 8.24576C96.0297 8.24576 92.9536 9.98936 90.4092 13.4766C87.8647 16.9898 86.5925 21.2057 86.5925 26.1242V56.3771C86.5925 57.2359 86.3647 57.9646 85.9089 58.5631C85.4722 59.1877 84.9405 59.5 84.3139 59.5C83.6873 59.5 83.1462 59.1877 82.6904 58.5631C82.2537 57.9646 82.0353 57.2359 82.0353 56.3771V26.1242C82.0353 19.4881 83.7538 13.8149 87.1906 9.10455C90.6275 4.36818 94.7764 2 99.6374 2C104.479 2 108.628 4.36818 112.084 9.10455C115.521 13.8149 117.24 19.4881 117.24 26.1242V56.3771C117.24 57.2359 117.012 57.9646 116.556 58.5631C116.119 59.1877 115.588 59.5 114.961 59.5ZM108.894 59.5C108.268 59.5 107.736 59.1877 107.299 58.5631C106.843 57.9646 106.616 57.2359 106.616 56.3771V26.1242C106.616 23.4958 105.932 21.2447 104.565 19.371C103.198 17.4973 101.555 16.5604 99.6374 16.5604C97.7006 16.5604 96.0487 17.4973 94.6815 19.371C93.3143 21.2447 92.6308 23.4958 92.6308 26.1242V56.3771C92.6308 57.2359 92.4124 57.9646 91.9757 58.5631C91.539 59.1877 91.0073 59.5 90.3807 59.5C89.7541 59.5 89.2129 59.1877 88.7572 58.5631C88.3204 57.9646 88.1021 57.2359 88.1021 56.3771V26.1242C88.1021 21.7782 89.2319 18.0568 91.4915 14.9599C93.7321 11.8631 96.4474 10.3147 99.6374 10.3147C102.808 10.3147 105.524 11.8631 107.783 14.9599C110.043 18.0568 111.173 21.7782 111.173 26.1242V56.3771C111.173 57.2359 110.954 57.9646 110.518 58.5631C110.062 59.1877 109.521 59.5 108.894 59.5Z" fill="url(#paint2_linear_9_2)"/>
<path d="M157.058 59.5C156.431 59.5 155.9 59.1877 155.463 58.5631C155.007 57.9646 154.779 57.2359 154.779 56.3771V26.1242C154.779 21.2057 153.507 16.9898 150.963 13.4766C148.399 9.98936 145.323 8.24576 141.734 8.24576C138.127 8.24576 135.05 9.98936 132.506 13.4766C129.962 16.9898 128.689 21.2057 128.689 26.1242V56.3771C128.689 57.2359 128.462 57.9646 128.006 58.5631C127.569 59.1877 127.037 59.5 126.411 59.5C125.784 59.5 125.243 59.1877 124.787 58.5631C124.351 57.9646 124.132 57.2359 124.132 56.3771V26.1242C124.132 19.4881 125.851 13.8149 129.288 9.10455C132.724 4.36818 136.873 2 141.734 2C146.576 2 150.725 4.36818 154.181 9.10455C157.618 13.8149 159.336 19.4881 159.336 26.1242V56.3771C159.336 57.2359 159.109 57.9646 158.653 58.5631C158.216 59.1877 157.684 59.5 157.058 59.5ZM150.991 59.5C150.364 59.5 149.833 59.1877 149.396 58.5631C148.94 57.9646 148.712 57.2359 148.712 56.3771V44.276H138.373C137.747 44.276 137.206 43.9637 136.75 43.3391C136.313 42.7406 136.095 42.0119 136.095 41.1531C136.095 40.2943 136.313 39.5526 136.75 38.928C137.206 38.3295 137.747 38.0302 138.373 38.0302H148.712V35.9613H138.373C137.747 35.9613 137.206 35.649 136.75 35.0244C136.313 34.4259 136.095 33.6972 136.095 32.8384C136.095 31.9796 136.313 31.2379 136.75 30.6134C137.206 30.0148 137.747 29.7155 138.373 29.7155H148.712V26.1242C148.712 23.4958 148.029 21.2447 146.662 19.371C145.295 17.4973 143.652 16.5604 141.734 16.5604C139.798 16.5604 138.146 17.4973 136.778 19.371C135.411 21.2447 134.728 23.4958 134.728 26.1242V56.3771C134.728 57.2359 134.509 57.9646 134.073 58.5631C133.636 59.1877 133.104 59.5 132.478 59.5C131.851 59.5 131.31 59.1877 130.854 58.5631C130.417 57.9646 130.199 57.2359 130.199 56.3771V26.1242C130.199 21.7782 131.329 18.0568 133.588 14.9599C135.829 11.8631 138.544 10.3147 141.734 10.3147C144.905 10.3147 147.621 11.8631 149.88 14.9599C152.14 18.0568 153.27 21.7782 153.27 26.1242V56.3771C153.27 57.2359 153.051 57.9646 152.615 58.5631C152.159 59.1877 151.618 59.5 150.991 59.5Z" fill="url(#paint3_linear_9_2)"/>
<path d="M194.028 58.6022C193.591 59.2007 193.05 59.5 192.404 59.5C191.797 59.5 191.265 59.2007 190.809 58.6022C190.373 57.9776 190.154 57.2489 190.154 56.4162V21.518C190.154 17.8746 189.205 14.7518 187.306 12.1494C185.407 9.54696 183.129 8.24576 180.47 8.24576C177.812 8.24576 175.533 9.54696 173.635 12.1494C171.736 14.7518 170.786 17.8746 170.786 21.518V56.4162C170.786 57.2749 170.558 58.0036 170.103 58.6022C169.666 59.2007 169.125 59.5 168.479 59.5C167.872 59.5 167.34 59.2007 166.884 58.6022C166.447 57.9776 166.229 57.2489 166.229 56.4162V21.518C166.229 16.157 167.625 11.5638 170.416 7.73829C173.207 3.91276 176.559 2 180.47 2C184.382 2 187.733 3.91276 190.525 7.73829C193.316 11.5638 194.711 16.157 194.711 21.518V56.4162C194.711 57.2749 194.484 58.0036 194.028 58.6022ZM187.961 58.6022C187.524 59.2007 186.983 59.5 186.338 59.5C185.73 59.5 185.198 59.2007 184.743 58.6022C184.306 57.9776 184.088 57.2489 184.088 56.4162V21.518C184.088 20.1647 183.736 18.9937 183.034 18.0048C182.312 17.0419 181.458 16.5604 180.47 16.5604C179.483 16.5604 178.628 17.0419 177.907 18.0048C177.204 18.9937 176.853 20.1647 176.853 21.518V56.4162C176.853 57.2749 176.625 58.0036 176.169 58.6022C175.733 59.2007 175.192 59.5 174.546 59.5C173.938 59.5 173.407 59.2007 172.951 58.6022C172.514 57.9776 172.296 57.2489 172.296 56.4162V21.518C172.296 18.4472 173.093 15.8057 174.688 13.5937C176.302 11.4077 178.23 10.3147 180.47 10.3147C182.711 10.3147 184.629 11.4077 186.224 13.5937C187.838 15.8057 188.645 18.4472 188.645 21.518V56.4162C188.645 57.2749 188.417 58.0036 187.961 58.6022ZM212.257 58.6022C211.82 59.2007 211.288 59.5 210.662 59.5C210.035 59.5 209.503 59.2007 209.067 58.6022C208.611 57.9776 208.383 57.2489 208.383 56.4162V21.518C208.383 17.8746 207.434 14.7518 205.535 12.1494C203.636 9.54696 201.357 8.24576 198.699 8.24576C197.901 8.24576 197.113 8.37588 196.335 8.63612C195.537 8.92238 194.787 9.32575 194.085 9.84623L193.515 10.2756L193.116 9.53394C192.832 8.98744 192.528 8.46696 192.205 7.9725C191.882 7.45203 191.54 6.95757 191.18 6.48914L190.468 5.55227L191.294 4.84963C192.414 3.91276 193.601 3.21012 194.854 2.74168C196.107 2.24723 197.389 2 198.699 2C202.611 2 205.962 3.91276 208.753 7.73829C211.545 11.5638 212.94 16.157 212.94 21.518V56.4162C212.94 57.2749 212.712 58.0036 212.257 58.6022ZM206.19 58.6022C205.753 59.2007 205.221 59.5 204.595 59.5C203.968 59.5 203.437 59.2007 203 58.6022C202.544 57.9776 202.316 57.2489 202.316 56.4162V21.518C202.316 20.1647 201.965 18.9937 201.262 18.0048C200.541 17.0419 199.686 16.5604 198.699 16.5604C198.338 16.5604 197.987 16.6255 197.645 16.7556C197.303 16.9117 196.981 17.1329 196.677 17.4192L195.765 18.239L195.509 16.7946C195.414 16.144 195.281 15.4934 195.11 14.8428C194.939 14.1922 194.759 13.5677 194.569 12.9691L194.256 12.0713L194.911 11.6029C195.499 11.1865 196.107 10.8612 196.734 10.627C197.379 10.4188 198.034 10.3147 198.699 10.3147C200.94 10.3147 202.867 11.4077 204.481 13.5937C206.076 15.8057 206.873 18.4472 206.873 21.518V56.4162C206.873 57.2749 206.646 58.0036 206.19 58.6022Z" fill="url(#paint4_linear_9_2)"/>
<path d="M228.121 59.5C227.495 59.5 226.953 59.1877 226.498 58.5631C226.061 57.9646 225.843 57.2359 225.843 56.3771V5.08384C225.843 4.22505 226.061 3.49638 226.498 2.89783C226.934 2.29928 227.476 2 228.121 2C228.748 2 229.279 2.31229 229.716 2.93686C230.172 3.53542 230.4 4.25107 230.4 5.08384V56.3771C230.4 57.2359 230.172 57.9646 229.716 58.5631C229.279 59.1877 228.748 59.5 228.121 59.5ZM222.054 59.5C221.428 59.5 220.887 59.1877 220.431 58.5631C219.994 57.9646 219.776 57.2359 219.776 56.3771V5.08384C219.776 4.25107 219.994 3.53542 220.431 2.93686C220.868 2.31229 221.399 2 222.026 2C222.653 2 223.194 2.31229 223.649 2.93686C224.105 3.53542 224.333 4.25107 224.333 5.08384V56.3771C224.333 57.2359 224.105 57.9646 223.649 58.5631C223.213 59.1877 222.681 59.5 222.054 59.5Z" fill="url(#paint5_linear_9_2)"/>
<path d="M257.088 59.5C251.315 59.5 246.378 56.6894 242.277 51.0682C238.175 45.447 236.125 38.6808 236.125 30.7695C236.125 22.8322 238.175 16.053 242.277 10.4318C246.378 4.81059 251.315 2 257.088 2C262.253 2 266.8 4.29011 270.731 8.87033C271.186 9.49491 271.443 10.2236 271.5 11.0563C271.5 12.0192 271.281 12.8 270.845 13.3985C270.389 13.9971 269.876 14.3224 269.307 14.3744C268.737 14.4004 268.224 14.1532 267.769 13.6327C264.693 10.0414 261.132 8.24576 257.088 8.24576C252.569 8.24576 248.704 10.4448 245.495 14.8428C242.286 19.2409 240.682 24.5498 240.682 30.7695C240.682 36.9632 242.286 42.2591 245.495 46.6572C248.704 51.0552 252.569 53.2542 257.088 53.2542C261.132 53.2542 264.683 51.4586 267.74 47.8673C268.196 47.3468 268.709 47.0996 269.278 47.1256C269.848 47.1516 270.351 47.4379 270.788 47.9844L270.93 48.2576C271.31 48.8302 271.5 49.5328 271.5 50.3656C271.443 51.2764 271.186 52.0181 270.731 52.5906C266.819 57.1969 262.272 59.5 257.088 59.5ZM257.088 51.1853C252.986 51.1853 249.473 49.1815 246.549 45.1738C243.644 41.1921 242.191 36.3907 242.191 30.7695C242.191 25.1223 243.644 20.3079 246.549 16.3262C249.473 12.3185 252.986 10.3147 257.088 10.3147C260.544 10.3147 263.62 11.772 266.316 14.6867C266.829 15.2072 267.114 15.9489 267.17 16.9117C267.227 17.8226 267.009 18.6163 266.515 19.2929C266.098 19.8655 265.604 20.1908 265.034 20.2688C264.465 20.3209 263.952 20.0997 263.496 19.6052C261.654 17.5754 259.518 16.5604 257.088 16.5604C254.24 16.5604 251.8 17.9527 249.768 20.7373C247.755 23.4958 246.749 26.8399 246.749 30.7695C246.749 34.6731 247.755 38.0172 249.768 40.8018C251.8 43.5603 254.24 44.9396 257.088 44.9396C259.461 44.9396 261.597 43.9246 263.496 41.8948C263.952 41.4263 264.465 41.2181 265.034 41.2702C265.604 41.3222 266.088 41.6215 266.487 42.168C267 42.8707 267.227 43.6774 267.17 44.5883C267.114 45.5511 266.819 46.2928 266.288 46.8133C263.61 49.728 260.544 51.1853 257.088 51.1853Z" fill="url(#paint6_linear_9_2)"/>
<path d="M297.02 59.5C291.248 59.5 286.311 56.6894 282.209 51.0682C278.108 45.447 276.057 38.6808 276.057 30.7695C276.057 22.8322 278.108 16.053 282.209 10.4318C286.311 4.81059 291.248 2 297.02 2C302.811 2 307.748 4.81059 311.831 10.4318C315.932 16.053 317.983 22.8322 317.983 30.7695C317.983 38.6808 315.932 45.447 311.831 51.0682C307.748 56.6894 302.811 59.5 297.02 59.5ZM297.02 8.24576C292.501 8.24576 288.637 10.4448 285.428 14.8428C282.219 19.2409 280.614 24.5498 280.614 30.7695C280.614 36.9632 282.219 42.2591 285.428 46.6572C288.637 51.0552 292.501 53.2542 297.02 53.2542C301.558 53.2542 305.432 51.0552 308.641 46.6572C311.85 42.2591 313.454 36.9632 313.454 30.7695C313.454 24.5498 311.85 19.2409 308.641 14.8428C305.432 10.4448 301.558 8.24576 297.02 8.24576ZM297.02 51.1853C292.919 51.1853 289.406 49.1815 286.482 45.1738C283.576 41.1921 282.124 36.3907 282.124 30.7695C282.124 25.1223 283.576 20.3079 286.482 16.3262C289.406 12.3185 292.919 10.3147 297.02 10.3147C301.14 10.3147 304.653 12.3185 307.558 16.3262C310.464 20.3079 311.916 25.1223 311.916 30.7695C311.916 36.3907 310.464 41.1921 307.558 45.1738C304.653 49.1815 301.14 51.1853 297.02 51.1853ZM297.02 16.5604C294.172 16.5604 291.732 17.9527 289.7 20.7373C287.668 23.4958 286.652 26.8399 286.652 30.7695C286.652 34.6731 287.668 38.0172 289.7 40.8018C291.732 43.5603 294.172 44.9396 297.02 44.9396C299.887 44.9396 302.327 43.5603 304.34 40.8018C306.372 38.0172 307.388 34.6731 307.388 30.7695C307.388 26.8399 306.372 23.4958 304.34 20.7373C302.327 17.9527 299.887 16.5604 297.02 16.5604Z" fill="url(#paint7_linear_9_2)"/>
<path d="M356.605 59.5C355.978 59.5 355.447 59.1877 355.01 58.5631C354.554 57.9646 354.326 57.2359 354.326 56.3771V26.1242C354.326 21.2057 353.054 16.9898 350.51 13.4766C347.946 9.98936 344.87 8.24576 341.282 8.24576C337.674 8.24576 334.598 9.98936 332.053 13.4766C329.509 16.9898 328.237 21.2057 328.237 26.1242V56.3771C328.237 57.2359 328.009 57.9646 327.553 58.5631C327.116 59.1877 326.585 59.5 325.958 59.5C325.331 59.5 324.79 59.1877 324.335 58.5631C323.898 57.9646 323.679 57.2359 323.679 56.3771V26.1242C323.679 19.4881 325.398 13.8149 328.835 9.10455C332.272 4.36818 336.421 2 341.282 2C346.124 2 350.272 4.36818 353.728 9.10455C357.165 13.8149 358.884 19.4881 358.884 26.1242V56.3771C358.884 57.2359 358.656 57.9646 358.2 58.5631C357.763 59.1877 357.232 59.5 356.605 59.5ZM350.538 59.5C349.912 59.5 349.38 59.1877 348.943 58.5631C348.488 57.9646 348.26 57.2359 348.26 56.3771V26.1242C348.26 23.4958 347.576 21.2447 346.209 19.371C344.842 17.4973 343.199 16.5604 341.282 16.5604C339.345 16.5604 337.693 17.4973 336.326 19.371C334.958 21.2447 334.275 23.4958 334.275 26.1242V56.3771C334.275 57.2359 334.056 57.9646 333.62 58.5631C333.183 59.1877 332.651 59.5 332.025 59.5C331.398 59.5 330.857 59.1877 330.401 58.5631C329.965 57.9646 329.746 57.2359 329.746 56.3771V26.1242C329.746 21.7782 330.876 18.0568 333.136 14.9599C335.376 11.8631 338.091 10.3147 341.282 10.3147C344.453 10.3147 347.168 11.8631 349.427 14.9599C351.687 18.0568 352.817 21.7782 352.817 26.1242V56.3771C352.817 57.2359 352.598 57.9646 352.162 58.5631C351.706 59.1877 351.165 59.5 350.538 59.5Z" fill="url(#paint8_linear_9_2)"/>
<path d="M392.436 59.5C389.17 59.5 386.293 58.0166 383.806 55.0499C381.318 52.0832 379.866 48.3878 379.448 43.9637C379.334 43.0268 379.505 42.2071 379.961 41.5044C380.435 40.7757 381.005 40.4114 381.669 40.4114H381.698C382.268 40.4114 382.761 40.6716 383.179 41.1921C383.597 41.7126 383.853 42.3502 383.948 43.1049C384.214 45.9935 385.163 48.4138 386.796 50.3656C388.41 52.2914 390.29 53.2542 392.436 53.2542C394.809 53.2542 396.832 52.1092 398.503 49.8191C400.173 47.5029 401.009 44.7184 401.009 41.4654C401.009 37.848 400.344 35.1676 399.015 33.424C398.085 32.2008 396.537 31.2119 394.373 30.4572C394.107 30.3531 393.661 30.197 393.034 29.9888C390.546 29.1821 388.819 28.3103 387.85 27.3734C386.179 25.7599 385.344 23.3006 385.344 19.9956C385.344 17.3411 386.037 15.064 387.423 13.1643C388.809 11.2645 390.48 10.3147 392.436 10.3147C393.974 10.3147 395.36 10.9262 396.594 12.1494C397.828 13.3725 398.683 14.986 399.158 16.9898C399.385 18.0308 399.272 18.9676 398.816 19.8004C398.417 20.6332 397.809 21.0496 396.993 21.0496C395.892 21.0496 395.17 20.3469 394.828 18.9416C394.449 17.3542 393.651 16.5604 392.436 16.5604C391.733 16.5604 391.135 16.8987 390.641 17.5754C390.148 18.252 389.901 19.0587 389.901 19.9956C389.901 21.1406 390.319 22.0385 391.154 22.6891C391.743 23.1315 392.929 23.665 394.714 24.2895C397.164 25.1483 398.977 26.0201 400.154 26.905C403.762 29.6114 405.566 34.4649 405.566 41.4654C405.566 46.436 404.284 50.6779 401.721 54.1911C399.158 57.7304 396.063 59.5 392.436 59.5ZM392.436 51.1853C390.917 51.1853 389.531 50.5738 388.277 49.3506C387.043 48.1275 386.179 46.514 385.685 44.5102C385.477 43.4692 385.6 42.5324 386.056 41.6996C386.473 40.8408 387.081 40.4114 387.879 40.4114H387.907C388.989 40.4114 389.701 41.1401 390.043 42.5974C390.423 44.1589 391.221 44.9396 392.436 44.9396C393.138 44.9396 393.736 44.6013 394.23 43.9246C394.705 43.248 394.942 42.4283 394.942 41.4654C394.942 40.3203 394.534 39.4355 393.717 38.8109C393.129 38.3425 391.952 37.809 390.186 37.2105C386.236 35.8312 383.511 34.0095 382.011 31.7454C380.207 28.9609 379.305 25.0442 379.305 19.9956C379.305 15.051 380.587 10.8221 383.151 7.30889C385.714 3.76963 388.809 2 392.436 2C395.702 2 398.578 3.48337 401.066 6.4501C403.534 9.41684 404.996 13.1122 405.452 17.5363C405.509 18.5252 405.329 19.345 404.911 19.9956C404.455 20.6982 403.886 21.0496 403.202 21.0496C402.613 21.0496 402.11 20.7893 401.693 20.2688C401.256 19.7744 400.999 19.1498 400.924 18.3951C400.639 15.5064 399.689 13.0862 398.075 11.1344C396.461 9.20864 394.581 8.24576 392.436 8.24576C390.062 8.24576 388.04 9.39081 386.369 11.6809C384.679 13.9971 383.834 16.7686 383.834 19.9956C383.834 23.9773 384.67 26.8529 386.341 28.6225C387.328 29.6635 389.16 30.6264 391.838 31.5112C394.306 32.3179 396.034 33.2028 397.021 34.1656C398.673 35.7531 399.499 38.1864 399.499 41.4654C399.499 44.1458 398.806 46.436 397.42 48.3357C396.053 50.2355 394.392 51.1853 392.436 51.1853Z" fill="url(#paint9_linear_9_2)"/>
<path d="M439.09 58.6022C438.653 59.2007 438.112 59.5 437.466 59.5C436.859 59.5 436.327 59.2007 435.871 58.6022C435.435 57.9776 435.216 57.2489 435.216 56.4162V21.518C435.216 17.8746 434.267 14.7518 432.368 12.1494C430.469 9.54696 428.191 8.24576 425.532 8.24576C422.874 8.24576 420.595 9.54696 418.696 12.1494C416.798 14.7518 415.848 17.8746 415.848 21.518V56.4162C415.848 57.2749 415.62 58.0036 415.165 58.6022C414.728 59.2007 414.187 59.5 413.541 59.5C412.934 59.5 412.402 59.2007 411.946 58.6022C411.509 57.9776 411.291 57.2489 411.291 56.4162V21.518C411.291 16.157 412.687 11.5638 415.478 7.73829C418.269 3.91276 421.621 2 425.532 2C429.444 2 432.795 3.91276 435.587 7.73829C438.378 11.5638 439.773 16.157 439.773 21.518V56.4162C439.773 57.2749 439.546 58.0036 439.09 58.6022ZM433.023 58.6022C432.586 59.2007 432.045 59.5 431.4 59.5C430.792 59.5 430.26 59.2007 429.805 58.6022C429.368 57.9776 429.149 57.2489 429.149 56.4162V21.518C429.149 20.1647 428.798 18.9937 428.096 18.0048C427.374 17.0419 426.52 16.5604 425.532 16.5604C424.545 16.5604 423.69 17.0419 422.969 18.0048C422.266 18.9937 421.915 20.1647 421.915 21.518V56.4162C421.915 57.2749 421.687 58.0036 421.231 58.6022C420.795 59.2007 420.254 59.5 419.608 59.5C419 59.5 418.469 59.2007 418.013 58.6022C417.576 57.9776 417.358 57.2489 417.358 56.4162V21.518C417.358 18.4472 418.155 15.8057 419.75 13.5937C421.364 11.4077 423.292 10.3147 425.532 10.3147C427.773 10.3147 429.691 11.4077 431.286 13.5937C432.9 15.8057 433.707 18.4472 433.707 21.518V56.4162C433.707 57.2749 433.479 58.0036 433.023 58.6022ZM457.319 58.6022C456.882 59.2007 456.35 59.5 455.724 59.5C455.097 59.5 454.565 59.2007 454.129 58.6022C453.673 57.9776 453.445 57.2489 453.445 56.4162V21.518C453.445 17.8746 452.496 14.7518 450.597 12.1494C448.698 9.54696 446.419 8.24576 443.761 8.24576C442.963 8.24576 442.175 8.37588 441.397 8.63612C440.599 8.92238 439.849 9.32575 439.147 9.84623L438.577 10.2756L438.178 9.53394C437.894 8.98744 437.59 8.46696 437.267 7.9725C436.944 7.45203 436.602 6.95757 436.242 6.48914L435.53 5.55227L436.356 4.84963C437.476 3.91276 438.663 3.21012 439.916 2.74168C441.169 2.24723 442.451 2 443.761 2C447.673 2 451.024 3.91276 453.815 7.73829C456.606 11.5638 458.002 16.157 458.002 21.518V56.4162C458.002 57.2749 457.774 58.0036 457.319 58.6022ZM451.252 58.6022C450.815 59.2007 450.283 59.5 449.657 59.5C449.03 59.5 448.498 59.2007 448.062 58.6022C447.606 57.9776 447.378 57.2489 447.378 56.4162V21.518C447.378 20.1647 447.027 18.9937 446.324 18.0048C445.603 17.0419 444.748 16.5604 443.761 16.5604C443.4 16.5604 443.049 16.6255 442.707 16.7556C442.365 16.9117 442.043 17.1329 441.739 17.4192L440.827 18.239L440.571 16.7946C440.476 16.144 440.343 15.4934 440.172 14.8428C440.001 14.1922 439.821 13.5677 439.631 12.9691L439.318 12.0713L439.973 11.6029C440.561 11.1865 441.169 10.8612 441.796 10.627C442.441 10.4188 443.096 10.3147 443.761 10.3147C446.002 10.3147 447.929 11.4077 449.543 13.5937C451.138 15.8057 451.935 18.4472 451.935 21.518V56.4162C451.935 57.2749 451.708 58.0036 451.252 58.6022Z" fill="url(#paint10_linear_9_2)"/>
<path d="M473.183 59.5C472.557 59.5 472.015 59.1877 471.56 58.5631C471.123 57.9646 470.905 57.2359 470.905 56.3771V5.08384C470.905 4.22505 471.123 3.49638 471.56 2.89783C471.996 2.29928 472.538 2 473.183 2C473.81 2 474.341 2.31229 474.778 2.93686C475.234 3.53542 475.462 4.25107 475.462 5.08384V56.3771C475.462 57.2359 475.234 57.9646 474.778 58.5631C474.341 59.1877 473.81 59.5 473.183 59.5ZM467.116 59.5C466.49 59.5 465.949 59.1877 465.493 58.5631C465.056 57.9646 464.838 57.2359 464.838 56.3771V5.08384C464.838 4.25107 465.056 3.53542 465.493 2.93686C465.93 2.31229 466.461 2 467.088 2C467.715 2 468.256 2.31229 468.711 2.93686C469.167 3.53542 469.395 4.25107 469.395 5.08384V56.3771C469.395 57.2359 469.167 57.9646 468.711 58.5631C468.275 59.1877 467.743 59.5 467.116 59.5Z" fill="url(#paint11_linear_9_2)"/>
<path d="M498.162 59.5C497.536 59.5 497.004 59.2007 496.567 58.6022C496.13 57.9776 495.912 57.2359 495.912 56.3771V17.4973C495.912 16.7946 495.665 16.4433 495.172 16.4433H495.143C494.63 16.4433 494.374 16.7946 494.374 17.4973V56.3771C494.374 57.2359 494.156 57.9776 493.719 58.6022C493.282 59.2007 492.751 59.5 492.124 59.5C491.497 59.5 490.956 59.2007 490.5 58.6022C490.064 57.9776 489.845 57.2359 489.845 56.3771V16.5604H481.472C480.845 16.5604 480.304 16.2481 479.848 15.6236C479.411 15.025 479.193 14.2963 479.193 13.4375C479.193 12.5788 479.411 11.8371 479.848 11.2125C480.304 10.6139 480.845 10.3147 481.472 10.3147H508.815C509.441 10.3147 509.982 10.6139 510.438 11.2125C510.875 11.8371 511.093 12.5788 511.093 13.4375C511.093 14.2963 510.875 15.025 510.438 15.6236C509.982 16.2481 509.441 16.5604 508.815 16.5604H500.441V56.3771C500.441 57.2359 500.222 57.9776 499.786 58.6022C499.349 59.2007 498.808 59.5 498.162 59.5ZM481.472 8.24576C480.845 8.24576 480.304 7.93347 479.848 7.30889C479.411 6.71034 479.193 5.98167 479.193 5.12288C479.193 4.26409 479.411 3.5224 479.848 2.89783C480.304 2.29928 480.845 2 481.472 2H508.815C509.441 2 509.982 2.29928 510.438 2.89783C510.875 3.5224 511.093 4.26409 511.093 5.12288C511.093 5.98167 510.875 6.71034 510.438 7.30889C509.982 7.93347 509.441 8.24576 508.815 8.24576H481.472Z" fill="url(#paint12_linear_9_2)"/>
<path d="M523.141 59.5C522.515 59.5 521.973 59.1877 521.518 58.5631C521.081 57.9646 520.863 57.2359 520.863 56.3771V5.08384C520.863 4.22505 521.081 3.49638 521.518 2.89783C521.954 2.29928 522.496 2 523.141 2C523.768 2 524.299 2.31229 524.736 2.93686C525.173 3.53542 525.391 4.25107 525.391 5.08384V56.3771C525.391 57.2359 525.173 57.9646 524.736 58.5631C524.299 59.1877 523.768 59.5 523.141 59.5ZM541.655 59.5C541.028 59.5 540.496 59.1877 540.06 58.5631C539.604 57.9646 539.376 57.2359 539.376 56.3771V36.1955H529.037C528.41 36.1955 527.869 35.8832 527.414 35.2587C526.977 34.6601 526.758 33.9314 526.758 33.0726C526.758 32.2138 526.977 31.4722 527.414 30.8476C527.869 30.249 528.41 29.9498 529.037 29.9498H539.376V27.8809H529.037C528.41 27.8809 527.869 27.5686 527.414 26.944C526.977 26.3454 526.758 25.6168 526.758 24.758C526.758 23.8992 526.977 23.1575 527.414 22.5329C527.869 21.9344 528.41 21.6351 529.037 21.6351H539.376V5.08384C539.376 4.25107 539.594 3.53542 540.031 2.93686C540.468 2.31229 541 2 541.626 2C542.272 2 542.813 2.29928 543.25 2.89783C543.705 3.49638 543.933 4.22505 543.933 5.08384V56.3771C543.933 57.2359 543.705 57.9646 543.25 58.5631C542.813 59.1877 542.281 59.5 541.655 59.5ZM517.074 59.5C516.448 59.5 515.907 59.1877 515.451 58.5631C515.014 57.9646 514.796 57.2359 514.796 56.3771V5.08384C514.796 4.25107 515.014 3.53542 515.451 2.93686C515.888 2.31229 516.419 2 517.046 2C517.692 2 518.233 2.29928 518.669 2.89783C519.125 3.49638 519.353 4.22505 519.353 5.08384V56.3771C519.353 57.2359 519.125 57.9646 518.669 58.5631C518.233 59.1877 517.701 59.5 517.074 59.5ZM547.721 59.5C547.095 59.5 546.563 59.1877 546.126 58.5631C545.671 57.9646 545.443 57.2359 545.443 56.3771V5.08384C545.443 4.25107 545.661 3.53542 546.098 2.93686C546.535 2.31229 547.066 2 547.693 2C548.339 2 548.88 2.29928 549.316 2.89783C549.772 3.49638 550 4.22505 550 5.08384V56.3771C550 57.2359 549.772 57.9646 549.316 58.5631C548.88 59.1877 548.348 59.5 547.721 59.5Z" fill="url(#paint13_linear_9_2)"/>
<path d="M8.06674 20.0346C8.1237 17.2761 8.81677 14.986 10.1459 13.1643C11.5321 11.2645 13.203 10.3147 15.1588 10.3147H16.2412C20.3426 10.3147 23.8459 12.3185 26.7511 16.3262C29.6753 20.3079 31.1374 25.1223 31.1374 30.7695C31.1374 36.3907 29.6753 41.1921 26.7511 45.1738C23.8459 49.1815 20.3426 51.1853 16.2412 51.1853H15.8139C15.1873 51.1853 14.6556 50.873 14.2189 50.2485C13.7822 49.6499 13.5638 48.9212 13.5638 48.0625C13.5638 47.2037 13.7822 46.475 14.2189 45.8764C14.6556 45.2519 15.1873 44.9396 15.8139 44.9396H16.2412C19.0894 44.9396 21.5294 43.5603 23.5611 40.8018C25.5739 38.0172 26.5803 34.6731 26.5803 30.7695C26.5803 26.8399 25.5739 23.4958 23.5611 20.7373C21.5294 17.9527 19.0894 16.5604 16.2412 16.5604H15.1588C14.4563 16.5604 13.8581 16.8987 13.3644 17.5754C12.8708 18.252 12.6239 19.0587 12.6239 19.9956V52.2003C12.6239 54.2301 12.1017 55.9477 11.0574 57.353C10.013 58.7843 8.75981 59.5 7.29771 59.5C5.83562 59.5 4.59189 58.7843 3.56653 57.353C2.52218 55.9477 2 54.2301 2 52.2003V19.9566C2.01899 15.038 3.31019 10.8221 5.8736 7.30889C8.43701 3.76963 11.5321 2 15.1588 2H16.2412C22.0136 2 26.9505 4.81059 31.052 10.4318C35.1534 16.053 37.2042 22.8322 37.2042 30.7695C37.2042 38.6808 35.1534 45.447 31.052 51.0682C26.9505 56.6894 22.0136 59.5 16.2412 59.5H15.8139C15.1873 59.5 14.6556 59.1877 14.2189 58.5631C13.7822 57.9646 13.5638 57.2359 13.5638 56.3771C13.5638 55.5183 13.7822 54.7897 14.2189 54.1911C14.6556 53.5665 15.1873 53.2542 15.8139 53.2542H16.2412C20.7604 53.2542 24.6245 51.0552 27.8335 46.6572C31.0425 42.2591 32.647 36.9632 32.647 30.7695C32.647 24.5498 31.0425 19.2409 27.8335 14.8428C24.6245 10.4448 20.7604 8.24576 16.2412 8.24576H15.1588C12.7853 8.24576 10.7631 9.39081 9.0921 11.6809C7.40215 13.9971 6.55717 16.7686 6.55717 19.9956V52.1612C6.55717 52.8639 6.80402 53.2152 7.29771 53.2152C7.8104 53.2152 8.06674 52.8639 8.06674 52.1612V20.0346Z" stroke="white" stroke-width="4" mask="url(#path-1-outside-1_9_2)"/>
<path d="M71.1836 5.12288C71.2026 4.26409 71.4304 3.53542 71.8672 2.93686C72.2849 2.33831 72.8166 2.02602 73.4622 2C74.1078 2 74.6584 2.31229 75.1141 2.93686C75.5319 3.53542 75.7408 4.26409 75.7408 5.12288V36.3907C75.7408 42.7666 74.0983 48.2186 70.8133 52.7468C67.5094 57.2489 63.5408 59.5 58.9077 59.5C55.3379 59.5 52.1004 58.0947 49.1952 55.2841C46.271 52.4735 44.2108 48.7781 43.0146 44.1979C42.9196 43.7815 42.8816 43.3651 42.9006 42.9487C42.9196 42.5584 42.9956 42.155 43.1285 41.7386C43.2804 41.3483 43.4703 41.023 43.6981 40.7627C43.926 40.5025 44.1918 40.3073 44.4956 40.1772H44.5241C45.0938 39.943 45.6539 40.008 46.2046 40.3724C46.7362 40.7367 47.1065 41.3092 47.3154 42.09C48.1888 45.447 49.6889 48.1535 51.8156 50.2094C53.9423 52.2393 56.3063 53.2542 58.9077 53.2542C62.2876 53.2542 65.1833 51.6147 67.5948 48.3357C69.9873 45.0307 71.1836 41.049 71.1836 36.3907V5.12288ZM50.306 37.757C50.0022 37.8871 49.7269 38.0823 49.48 38.3425C49.2522 38.6288 49.0718 38.9671 48.9389 39.3574C48.787 39.7478 48.711 40.1512 48.711 40.5675C48.692 41.01 48.7395 41.4263 48.8534 41.8167C49.6699 44.6533 50.9991 46.9304 52.841 48.648C54.6638 50.3396 56.6861 51.1853 58.9077 51.1853C61.8699 51.1853 64.4048 49.741 66.5125 46.8523C68.6202 43.9637 69.674 40.4765 69.674 36.3907V5.12288C69.674 4.29011 69.4651 3.56144 69.0474 2.93686C68.6107 2.33831 68.0695 2.02602 67.4239 2C66.7593 2 66.2087 2.31229 65.7719 2.93686C65.3352 3.53542 65.1168 4.26409 65.1168 5.12288V36.3907C65.1168 38.7589 64.5092 40.7757 63.294 42.4413C62.0787 44.1068 60.6166 44.9396 58.9077 44.9396C57.6165 44.9396 56.4392 44.4581 55.3759 43.4952C54.3315 42.5063 53.572 41.1921 53.0973 39.5526C52.8694 38.7979 52.4897 38.2384 51.958 37.8741C51.4453 37.5358 50.9042 37.4837 50.3345 37.7179L50.306 37.757ZM63.8351 25.1483C63.8351 24.3156 63.6168 23.5869 63.18 22.9623C62.7243 22.3638 62.1927 22.0645 61.585 22.0645H59.6482C57.7304 22.0645 56.0879 21.1276 54.7208 19.2539C53.3536 17.3542 52.6701 15.1031 52.6701 12.5007V5.12288C52.6701 4.26409 52.4422 3.5224 51.9865 2.89783C51.5498 2.29928 51.0181 2 50.3915 2C49.7649 2 49.2237 2.29928 48.768 2.89783C48.3313 3.5224 48.1129 4.26409 48.1129 5.12288V12.5007C48.1129 16.8207 49.2427 20.5421 51.5023 23.665C53.7619 26.7618 56.4772 28.3103 59.6482 28.3103H61.585C62.2116 28.3103 62.7433 27.998 63.18 27.3734C63.6168 26.7748 63.8351 26.0332 63.8351 25.1483ZM63.8351 33.463C63.8351 32.6302 63.6168 31.9016 63.18 31.277C62.7243 30.6784 62.1927 30.3792 61.585 30.3792H59.6482C56.0595 30.3792 52.9834 28.6225 50.42 25.1093C47.8755 21.6221 46.6033 17.4192 46.6033 12.5007V5.12288C46.6033 4.26409 46.3755 3.5224 45.9198 2.89783C45.483 2.29928 44.9514 2 44.3247 2C43.6981 2 43.157 2.29928 42.7012 2.89783C42.2645 3.5224 42.0462 4.26409 42.0462 5.12288V12.5007C42.0462 19.1368 43.7741 24.81 47.2299 29.5204C50.6668 34.2567 54.8062 36.6249 59.6482 36.6249H61.585C62.2116 36.6249 62.7433 36.3126 63.18 35.6881C63.6168 35.0895 63.8351 34.3478 63.8351 33.463Z" stroke="white" stroke-width="4" mask="url(#path-1-outside-1_9_2)"/>
<path d="M114.961 59.5C114.334 59.5 113.803 59.1877 113.366 58.5631C112.91 57.9646 112.682 57.2359 112.682 56.3771V26.1242C112.682 21.2057 111.41 16.9898 108.866 13.4766C106.302 9.98936 103.226 8.24576 99.6374 8.24576C96.0297 8.24576 92.9536 9.98936 90.4092 13.4766C87.8647 16.9898 86.5925 21.2057 86.5925 26.1242V56.3771C86.5925 57.2359 86.3647 57.9646 85.9089 58.5631C85.4722 59.1877 84.9405 59.5 84.3139 59.5C83.6873 59.5 83.1462 59.1877 82.6904 58.5631C82.2537 57.9646 82.0353 57.2359 82.0353 56.3771V26.1242C82.0353 19.4881 83.7538 13.8149 87.1906 9.10455C90.6275 4.36818 94.7764 2 99.6374 2C104.479 2 108.628 4.36818 112.084 9.10455C115.521 13.8149 117.24 19.4881 117.24 26.1242V56.3771C117.24 57.2359 117.012 57.9646 116.556 58.5631C116.119 59.1877 115.588 59.5 114.961 59.5ZM108.894 59.5C108.268 59.5 107.736 59.1877 107.299 58.5631C106.843 57.9646 106.616 57.2359 106.616 56.3771V26.1242C106.616 23.4958 105.932 21.2447 104.565 19.371C103.198 17.4973 101.555 16.5604 99.6374 16.5604C97.7006 16.5604 96.0487 17.4973 94.6815 19.371C93.3143 21.2447 92.6308 23.4958 92.6308 26.1242V56.3771C92.6308 57.2359 92.4124 57.9646 91.9757 58.5631C91.539 59.1877 91.0073 59.5 90.3807 59.5C89.7541 59.5 89.2129 59.1877 88.7572 58.5631C88.3204 57.9646 88.1021 57.2359 88.1021 56.3771V26.1242C88.1021 21.7782 89.2319 18.0568 91.4915 14.9599C93.7321 11.8631 96.4474 10.3147 99.6374 10.3147C102.808 10.3147 105.524 11.8631 107.783 14.9599C110.043 18.0568 111.173 21.7782 111.173 26.1242V56.3771C111.173 57.2359 110.954 57.9646 110.518 58.5631C110.062 59.1877 109.521 59.5 108.894 59.5Z" stroke="white" stroke-width="4" mask="url(#path-1-outside-1_9_2)"/>
<path d="M157.058 59.5C156.431 59.5 155.9 59.1877 155.463 58.5631C155.007 57.9646 154.779 57.2359 154.779 56.3771V26.1242C154.779 21.2057 153.507 16.9898 150.963 13.4766C148.399 9.98936 145.323 8.24576 141.734 8.24576C138.127 8.24576 135.05 9.98936 132.506 13.4766C129.962 16.9898 128.689 21.2057 128.689 26.1242V56.3771C128.689 57.2359 128.462 57.9646 128.006 58.5631C127.569 59.1877 127.037 59.5 126.411 59.5C125.784 59.5 125.243 59.1877 124.787 58.5631C124.351 57.9646 124.132 57.2359 124.132 56.3771V26.1242C124.132 19.4881 125.851 13.8149 129.288 9.10455C132.724 4.36818 136.873 2 141.734 2C146.576 2 150.725 4.36818 154.181 9.10455C157.618 13.8149 159.336 19.4881 159.336 26.1242V56.3771C159.336 57.2359 159.109 57.9646 158.653 58.5631C158.216 59.1877 157.684 59.5 157.058 59.5ZM150.991 59.5C150.364 59.5 149.833 59.1877 149.396 58.5631C148.94 57.9646 148.712 57.2359 148.712 56.3771V44.276H138.373C137.747 44.276 137.206 43.9637 136.75 43.3391C136.313 42.7406 136.095 42.0119 136.095 41.1531C136.095 40.2943 136.313 39.5526 136.75 38.928C137.206 38.3295 137.747 38.0302 138.373 38.0302H148.712V35.9613H138.373C137.747 35.9613 137.206 35.649 136.75 35.0244C136.313 34.4259 136.095 33.6972 136.095 32.8384C136.095 31.9796 136.313 31.2379 136.75 30.6134C137.206 30.0148 137.747 29.7155 138.373 29.7155H148.712V26.1242C148.712 23.4958 148.029 21.2447 146.662 19.371C145.295 17.4973 143.652 16.5604 141.734 16.5604C139.798 16.5604 138.146 17.4973 136.778 19.371C135.411 21.2447 134.728 23.4958 134.728 26.1242V56.3771C134.728 57.2359 134.509 57.9646 134.073 58.5631C133.636 59.1877 133.104 59.5 132.478 59.5C131.851 59.5 131.31 59.1877 130.854 58.5631C130.417 57.9646 130.199 57.2359 130.199 56.3771V26.1242C130.199 21.7782 131.329 18.0568 133.588 14.9599C135.829 11.8631 138.544 10.3147 141.734 10.3147C144.905 10.3147 147.621 11.8631 149.88 14.9599C152.14 18.0568 153.27 21.7782 153.27 26.1242V56.3771C153.27 57.2359 153.051 57.9646 152.615 58.5631C152.159 59.1877 151.618 59.5 150.991 59.5Z" stroke="white" stroke-width="4" mask="url(#path-1-outside-1_9_2)"/>
<path d="M194.028 58.6022C193.591 59.2007 193.05 59.5 192.404 59.5C191.797 59.5 191.265 59.2007 190.809 58.6022C190.373 57.9776 190.154 57.2489 190.154 56.4162V21.518C190.154 17.8746 189.205 14.7518 187.306 12.1494C185.407 9.54696 183.129 8.24576 180.47 8.24576C177.812 8.24576 175.533 9.54696 173.635 12.1494C171.736 14.7518 170.786 17.8746 170.786 21.518V56.4162C170.786 57.2749 170.558 58.0036 170.103 58.6022C169.666 59.2007 169.125 59.5 168.479 59.5C167.872 59.5 167.34 59.2007 166.884 58.6022C166.447 57.9776 166.229 57.2489 166.229 56.4162V21.518C166.229 16.157 167.625 11.5638 170.416 7.73829C173.207 3.91276 176.559 2 180.47 2C184.382 2 187.733 3.91276 190.525 7.73829C193.316 11.5638 194.711 16.157 194.711 21.518V56.4162C194.711 57.2749 194.484 58.0036 194.028 58.6022ZM187.961 58.6022C187.524 59.2007 186.983 59.5 186.338 59.5C185.73 59.5 185.198 59.2007 184.743 58.6022C184.306 57.9776 184.088 57.2489 184.088 56.4162V21.518C184.088 20.1647 183.736 18.9937 183.034 18.0048C182.312 17.0419 181.458 16.5604 180.47 16.5604C179.483 16.5604 178.628 17.0419 177.907 18.0048C177.204 18.9937 176.853 20.1647 176.853 21.518V56.4162C176.853 57.2749 176.625 58.0036 176.169 58.6022C175.733 59.2007 175.192 59.5 174.546 59.5C173.938 59.5 173.407 59.2007 172.951 58.6022C172.514 57.9776 172.296 57.2489 172.296 56.4162V21.518C172.296 18.4472 173.093 15.8057 174.688 13.5937C176.302 11.4077 178.23 10.3147 180.47 10.3147C182.711 10.3147 184.629 11.4077 186.224 13.5937C187.838 15.8057 188.645 18.4472 188.645 21.518V56.4162C188.645 57.2749 188.417 58.0036 187.961 58.6022ZM212.257 58.6022C211.82 59.2007 211.288 59.5 210.662 59.5C210.035 59.5 209.503 59.2007 209.067 58.6022C208.611 57.9776 208.383 57.2489 208.383 56.4162V21.518C208.383 17.8746 207.434 14.7518 205.535 12.1494C203.636 9.54696 201.357 8.24576 198.699 8.24576C197.901 8.24576 197.113 8.37588 196.335 8.63612C195.537 8.92238 194.787 9.32575 194.085 9.84623L193.515 10.2756L193.116 9.53394C192.832 8.98744 192.528 8.46696 192.205 7.9725C191.882 7.45203 191.54 6.95757 191.18 6.48914L190.468 5.55227L191.294 4.84963C192.414 3.91276 193.601 3.21012 194.854 2.74168C196.107 2.24723 197.389 2 198.699 2C202.611 2 205.962 3.91276 208.753 7.73829C211.545 11.5638 212.94 16.157 212.94 21.518V56.4162C212.94 57.2749 212.712 58.0036 212.257 58.6022ZM206.19 58.6022C205.753 59.2007 205.221 59.5 204.595 59.5C203.968 59.5 203.437 59.2007 203 58.6022C202.544 57.9776 202.316 57.2489 202.316 56.4162V21.518C202.316 20.1647 201.965 18.9937 201.262 18.0048C200.541 17.0419 199.686 16.5604 198.699 16.5604C198.338 16.5604 197.987 16.6255 197.645 16.7556C197.303 16.9117 196.981 17.1329 196.677 17.4192L195.765 18.239L195.509 16.7946C195.414 16.144 195.281 15.4934 195.11 14.8428C194.939 14.1922 194.759 13.5677 194.569 12.9691L194.256 12.0713L194.911 11.6029C195.499 11.1865 196.107 10.8612 196.734 10.627C197.379 10.4188 198.034 10.3147 198.699 10.3147C200.94 10.3147 202.867 11.4077 204.481 13.5937C206.076 15.8057 206.873 18.4472 206.873 21.518V56.4162C206.873 57.2749 206.646 58.0036 206.19 58.6022Z" stroke="white" stroke-width="4" mask="url(#path-1-outside-1_9_2)"/>
<path d="M228.121 59.5C227.495 59.5 226.953 59.1877 226.498 58.5631C226.061 57.9646 225.843 57.2359 225.843 56.3771V5.08384C225.843 4.22505 226.061 3.49638 226.498 2.89783C226.934 2.29928 227.476 2 228.121 2C228.748 2 229.279 2.31229 229.716 2.93686C230.172 3.53542 230.4 4.25107 230.4 5.08384V56.3771C230.4 57.2359 230.172 57.9646 229.716 58.5631C229.279 59.1877 228.748 59.5 228.121 59.5ZM222.054 59.5C221.428 59.5 220.887 59.1877 220.431 58.5631C219.994 57.9646 219.776 57.2359 219.776 56.3771V5.08384C219.776 4.25107 219.994 3.53542 220.431 2.93686C220.868 2.31229 221.399 2 222.026 2C222.653 2 223.194 2.31229 223.649 2.93686C224.105 3.53542 224.333 4.25107 224.333 5.08384V56.3771C224.333 57.2359 224.105 57.9646 223.649 58.5631C223.213 59.1877 222.681 59.5 222.054 59.5Z" stroke="white" stroke-width="4" mask="url(#path-1-outside-1_9_2)"/>
<path d="M257.088 59.5C251.315 59.5 246.378 56.6894 242.277 51.0682C238.175 45.447 236.125 38.6808 236.125 30.7695C236.125 22.8322 238.175 16.053 242.277 10.4318C246.378 4.81059 251.315 2 257.088 2C262.253 2 266.8 4.29011 270.731 8.87033C271.186 9.49491 271.443 10.2236 271.5 11.0563C271.5 12.0192 271.281 12.8 270.845 13.3985C270.389 13.9971 269.876 14.3224 269.307 14.3744C268.737 14.4004 268.224 14.1532 267.769 13.6327C264.693 10.0414 261.132 8.24576 257.088 8.24576C252.569 8.24576 248.704 10.4448 245.495 14.8428C242.286 19.2409 240.682 24.5498 240.682 30.7695C240.682 36.9632 242.286 42.2591 245.495 46.6572C248.704 51.0552 252.569 53.2542 257.088 53.2542C261.132 53.2542 264.683 51.4586 267.74 47.8673C268.196 47.3468 268.709 47.0996 269.278 47.1256C269.848 47.1516 270.351 47.4379 270.788 47.9844L270.93 48.2576C271.31 48.8302 271.5 49.5328 271.5 50.3656C271.443 51.2764 271.186 52.0181 270.731 52.5906C266.819 57.1969 262.272 59.5 257.088 59.5ZM257.088 51.1853C252.986 51.1853 249.473 49.1815 246.549 45.1738C243.644 41.1921 242.191 36.3907 242.191 30.7695C242.191 25.1223 243.644 20.3079 246.549 16.3262C249.473 12.3185 252.986 10.3147 257.088 10.3147C260.544 10.3147 263.62 11.772 266.316 14.6867C266.829 15.2072 267.114 15.9489 267.17 16.9117C267.227 17.8226 267.009 18.6163 266.515 19.2929C266.098 19.8655 265.604 20.1908 265.034 20.2688C264.465 20.3209 263.952 20.0997 263.496 19.6052C261.654 17.5754 259.518 16.5604 257.088 16.5604C254.24 16.5604 251.8 17.9527 249.768 20.7373C247.755 23.4958 246.749 26.8399 246.749 30.7695C246.749 34.6731 247.755 38.0172 249.768 40.8018C251.8 43.5603 254.24 44.9396 257.088 44.9396C259.461 44.9396 261.597 43.9246 263.496 41.8948C263.952 41.4263 264.465 41.2181 265.034 41.2702C265.604 41.3222 266.088 41.6215 266.487 42.168C267 42.8707 267.227 43.6774 267.17 44.5883C267.114 45.5511 266.819 46.2928 266.288 46.8133C263.61 49.728 260.544 51.1853 257.088 51.1853Z" stroke="white" stroke-width="4" mask="url(#path-1-outside-1_9_2)"/>
<path d="M297.02 59.5C291.248 59.5 286.311 56.6894 282.209 51.0682C278.108 45.447 276.057 38.6808 276.057 30.7695C276.057 22.8322 278.108 16.053 282.209 10.4318C286.311 4.81059 291.248 2 297.02 2C302.811 2 307.748 4.81059 311.831 10.4318C315.932 16.053 317.983 22.8322 317.983 30.7695C317.983 38.6808 315.932 45.447 311.831 51.0682C307.748 56.6894 302.811 59.5 297.02 59.5ZM297.02 8.24576C292.501 8.24576 288.637 10.4448 285.428 14.8428C282.219 19.2409 280.614 24.5498 280.614 30.7695C280.614 36.9632 282.219 42.2591 285.428 46.6572C288.637 51.0552 292.501 53.2542 297.02 53.2542C301.558 53.2542 305.432 51.0552 308.641 46.6572C311.85 42.2591 313.454 36.9632 313.454 30.7695C313.454 24.5498 311.85 19.2409 308.641 14.8428C305.432 10.4448 301.558 8.24576 297.02 8.24576ZM297.02 51.1853C292.919 51.1853 289.406 49.1815 286.482 45.1738C283.576 41.1921 282.124 36.3907 282.124 30.7695C282.124 25.1223 283.576 20.3079 286.482 16.3262C289.406 12.3185 292.919 10.3147 297.02 10.3147C301.14 10.3147 304.653 12.3185 307.558 16.3262C310.464 20.3079 311.916 25.1223 311.916 30.7695C311.916 36.3907 310.464 41.1921 307.558 45.1738C304.653 49.1815 301.14 51.1853 297.02 51.1853ZM297.02 16.5604C294.172 16.5604 291.732 17.9527 289.7 20.7373C287.668 23.4958 286.652 26.8399 286.652 30.7695C286.652 34.6731 287.668 38.0172 289.7 40.8018C291.732 43.5603 294.172 44.9396 297.02 44.9396C299.887 44.9396 302.327 43.5603 304.34 40.8018C306.372 38.0172 307.388 34.6731 307.388 30.7695C307.388 26.8399 306.372 23.4958 304.34 20.7373C302.327 17.9527 299.887 16.5604 297.02 16.5604Z" stroke="white" stroke-width="4" mask="url(#path-1-outside-1_9_2)"/>
<path d="M356.605 59.5C355.978 59.5 355.447 59.1877 355.01 58.5631C354.554 57.9646 354.326 57.2359 354.326 56.3771V26.1242C354.326 21.2057 353.054 16.9898 350.51 13.4766C347.946 9.98936 344.87 8.24576 341.282 8.24576C337.674 8.24576 334.598 9.98936 332.053 13.4766C329.509 16.9898 328.237 21.2057 328.237 26.1242V56.3771C328.237 57.2359 328.009 57.9646 327.553 58.5631C327.116 59.1877 326.585 59.5 325.958 59.5C325.331 59.5 324.79 59.1877 324.335 58.5631C323.898 57.9646 323.679 57.2359 323.679 56.3771V26.1242C323.679 19.4881 325.398 13.8149 328.835 9.10455C332.272 4.36818 336.421 2 341.282 2C346.124 2 350.272 4.36818 353.728 9.10455C357.165 13.8149 358.884 19.4881 358.884 26.1242V56.3771C358.884 57.2359 358.656 57.9646 358.2 58.5631C357.763 59.1877 357.232 59.5 356.605 59.5ZM350.538 59.5C349.912 59.5 349.38 59.1877 348.943 58.5631C348.488 57.9646 348.26 57.2359 348.26 56.3771V26.1242C348.26 23.4958 347.576 21.2447 346.209 19.371C344.842 17.4973 343.199 16.5604 341.282 16.5604C339.345 16.5604 337.693 17.4973 336.326 19.371C334.958 21.2447 334.275 23.4958 334.275 26.1242V56.3771C334.275 57.2359 334.056 57.9646 333.62 58.5631C333.183 59.1877 332.651 59.5 332.025 59.5C331.398 59.5 330.857 59.1877 330.401 58.5631C329.965 57.9646 329.746 57.2359 329.746 56.3771V26.1242C329.746 21.7782 330.876 18.0568 333.136 14.9599C335.376 11.8631 338.091 10.3147 341.282 10.3147C344.453 10.3147 347.168 11.8631 349.427 14.9599C351.687 18.0568 352.817 21.7782 352.817 26.1242V56.3771C352.817 57.2359 352.598 57.9646 352.162 58.5631C351.706 59.1877 351.165 59.5 350.538 59.5Z" stroke="white" stroke-width="4" mask="url(#path-1-outside-1_9_2)"/>
<path d="M392.436 59.5C389.17 59.5 386.293 58.0166 383.806 55.0499C381.318 52.0832 379.866 48.3878 379.448 43.9637C379.334 43.0268 379.505 42.2071 379.961 41.5044C380.435 40.7757 381.005 40.4114 381.669 40.4114H381.698C382.268 40.4114 382.761 40.6716 383.179 41.1921C383.597 41.7126 383.853 42.3502 383.948 43.1049C384.214 45.9935 385.163 48.4138 386.796 50.3656C388.41 52.2914 390.29 53.2542 392.436 53.2542C394.809 53.2542 396.832 52.1092 398.503 49.8191C400.173 47.5029 401.009 44.7184 401.009 41.4654C401.009 37.848 400.344 35.1676 399.015 33.424C398.085 32.2008 396.537 31.2119 394.373 30.4572C394.107 30.3531 393.661 30.197 393.034 29.9888C390.546 29.1821 388.819 28.3103 387.85 27.3734C386.179 25.7599 385.344 23.3006 385.344 19.9956C385.344 17.3411 386.037 15.064 387.423 13.1643C388.809 11.2645 390.48 10.3147 392.436 10.3147C393.974 10.3147 395.36 10.9262 396.594 12.1494C397.828 13.3725 398.683 14.986 399.158 16.9898C399.385 18.0308 399.272 18.9676 398.816 19.8004C398.417 20.6332 397.809 21.0496 396.993 21.0496C395.892 21.0496 395.17 20.3469 394.828 18.9416C394.449 17.3542 393.651 16.5604 392.436 16.5604C391.733 16.5604 391.135 16.8987 390.641 17.5754C390.148 18.252 389.901 19.0587 389.901 19.9956C389.901 21.1406 390.319 22.0385 391.154 22.6891C391.743 23.1315 392.929 23.665 394.714 24.2895C397.164 25.1483 398.977 26.0201 400.154 26.905C403.762 29.6114 405.566 34.4649 405.566 41.4654C405.566 46.436 404.284 50.6779 401.721 54.1911C399.158 57.7304 396.063 59.5 392.436 59.5ZM392.436 51.1853C390.917 51.1853 389.531 50.5738 388.277 49.3506C387.043 48.1275 386.179 46.514 385.685 44.5102C385.477 43.4692 385.6 42.5324 386.056 41.6996C386.473 40.8408 387.081 40.4114 387.879 40.4114H387.907C388.989 40.4114 389.701 41.1401 390.043 42.5974C390.423 44.1589 391.221 44.9396 392.436 44.9396C393.138 44.9396 393.736 44.6013 394.23 43.9246C394.705 43.248 394.942 42.4283 394.942 41.4654C394.942 40.3203 394.534 39.4355 393.717 38.8109C393.129 38.3425 391.952 37.809 390.186 37.2105C386.236 35.8312 383.511 34.0095 382.011 31.7454C380.207 28.9609 379.305 25.0442 379.305 19.9956C379.305 15.051 380.587 10.8221 383.151 7.30889C385.714 3.76963 388.809 2 392.436 2C395.702 2 398.578 3.48337 401.066 6.4501C403.534 9.41684 404.996 13.1122 405.452 17.5363C405.509 18.5252 405.329 19.345 404.911 19.9956C404.455 20.6982 403.886 21.0496 403.202 21.0496C402.613 21.0496 402.11 20.7893 401.693 20.2688C401.256 19.7744 400.999 19.1498 400.924 18.3951C400.639 15.5064 399.689 13.0862 398.075 11.1344C396.461 9.20864 394.581 8.24576 392.436 8.24576C390.062 8.24576 388.04 9.39081 386.369 11.6809C384.679 13.9971 383.834 16.7686 383.834 19.9956C383.834 23.9773 384.67 26.8529 386.341 28.6225C387.328 29.6635 389.16 30.6264 391.838 31.5112C394.306 32.3179 396.034 33.2028 397.021 34.1656C398.673 35.7531 399.499 38.1864 399.499 41.4654C399.499 44.1458 398.806 46.436 397.42 48.3357C396.053 50.2355 394.392 51.1853 392.436 51.1853Z" stroke="white" stroke-width="4" mask="url(#path-1-outside-1_9_2)"/>
<path d="M439.09 58.6022C438.653 59.2007 438.112 59.5 437.466 59.5C436.859 59.5 436.327 59.2007 435.871 58.6022C435.435 57.9776 435.216 57.2489 435.216 56.4162V21.518C435.216 17.8746 434.267 14.7518 432.368 12.1494C430.469 9.54696 428.191 8.24576 425.532 8.24576C422.874 8.24576 420.595 9.54696 418.696 12.1494C416.798 14.7518 415.848 17.8746 415.848 21.518V56.4162C415.848 57.2749 415.62 58.0036 415.165 58.6022C414.728 59.2007 414.187 59.5 413.541 59.5C412.934 59.5 412.402 59.2007 411.946 58.6022C411.509 57.9776 411.291 57.2489 411.291 56.4162V21.518C411.291 16.157 412.687 11.5638 415.478 7.73829C418.269 3.91276 421.621 2 425.532 2C429.444 2 432.795 3.91276 435.587 7.73829C438.378 11.5638 439.773 16.157 439.773 21.518V56.4162C439.773 57.2749 439.546 58.0036 439.09 58.6022ZM433.023 58.6022C432.586 59.2007 432.045 59.5 431.4 59.5C430.792 59.5 430.26 59.2007 429.805 58.6022C429.368 57.9776 429.149 57.2489 429.149 56.4162V21.518C429.149 20.1647 428.798 18.9937 428.096 18.0048C427.374 17.0419 426.52 16.5604 425.532 16.5604C424.545 16.5604 423.69 17.0419 422.969 18.0048C422.266 18.9937 421.915 20.1647 421.915 21.518V56.4162C421.915 57.2749 421.687 58.0036 421.231 58.6022C420.795 59.2007 420.254 59.5 419.608 59.5C419 59.5 418.469 59.2007 418.013 58.6022C417.576 57.9776 417.358 57.2489 417.358 56.4162V21.518C417.358 18.4472 418.155 15.8057 419.75 13.5937C421.364 11.4077 423.292 10.3147 425.532 10.3147C427.773 10.3147 429.691 11.4077 431.286 13.5937C432.9 15.8057 433.707 18.4472 433.707 21.518V56.4162C433.707 57.2749 433.479 58.0036 433.023 58.6022ZM457.319 58.6022C456.882 59.2007 456.35 59.5 455.724 59.5C455.097 59.5 454.565 59.2007 454.129 58.6022C453.673 57.9776 453.445 57.2489 453.445 56.4162V21.518C453.445 17.8746 452.496 14.7518 450.597 12.1494C448.698 9.54696 446.419 8.24576 443.761 8.24576C442.963 8.24576 442.175 8.37588 441.397 8.63612C440.599 8.92238 439.849 9.32575 439.147 9.84623L438.577 10.2756L438.178 9.53394C437.894 8.98744 437.59 8.46696 437.267 7.9725C436.944 7.45203 436.602 6.95757 436.242 6.48914L435.53 5.55227L436.356 4.84963C437.476 3.91276 438.663 3.21012 439.916 2.74168C441.169 2.24723 442.451 2 443.761 2C447.673 2 451.024 3.91276 453.815 7.73829C456.606 11.5638 458.002 16.157 458.002 21.518V56.4162C458.002 57.2749 457.774 58.0036 457.319 58.6022ZM451.252 58.6022C450.815 59.2007 450.283 59.5 449.657 59.5C449.03 59.5 448.498 59.2007 448.062 58.6022C447.606 57.9776 447.378 57.2489 447.378 56.4162V21.518C447.378 20.1647 447.027 18.9937 446.324 18.0048C445.603 17.0419 444.748 16.5604 443.761 16.5604C443.4 16.5604 443.049 16.6255 442.707 16.7556C442.365 16.9117 442.043 17.1329 441.739 17.4192L440.827 18.239L440.571 16.7946C440.476 16.144 440.343 15.4934 440.172 14.8428C440.001 14.1922 439.821 13.5677 439.631 12.9691L439.318 12.0713L439.973 11.6029C440.561 11.1865 441.169 10.8612 441.796 10.627C442.441 10.4188 443.096 10.3147 443.761 10.3147C446.002 10.3147 447.929 11.4077 449.543 13.5937C451.138 15.8057 451.935 18.4472 451.935 21.518V56.4162C451.935 57.2749 451.708 58.0036 451.252 58.6022Z" stroke="white" stroke-width="4" mask="url(#path-1-outside-1_9_2)"/>
<path d="M473.183 59.5C472.557 59.5 472.015 59.1877 471.56 58.5631C471.123 57.9646 470.905 57.2359 470.905 56.3771V5.08384C470.905 4.22505 471.123 3.49638 471.56 2.89783C471.996 2.29928 472.538 2 473.183 2C473.81 2 474.341 2.31229 474.778 2.93686C475.234 3.53542 475.462 4.25107 475.462 5.08384V56.3771C475.462 57.2359 475.234 57.9646 474.778 58.5631C474.341 59.1877 473.81 59.5 473.183 59.5ZM467.116 59.5C466.49 59.5 465.949 59.1877 465.493 58.5631C465.056 57.9646 464.838 57.2359 464.838 56.3771V5.08384C464.838 4.25107 465.056 3.53542 465.493 2.93686C465.93 2.31229 466.461 2 467.088 2C467.715 2 468.256 2.31229 468.711 2.93686C469.167 3.53542 469.395 4.25107 469.395 5.08384V56.3771C469.395 57.2359 469.167 57.9646 468.711 58.5631C468.275 59.1877 467.743 59.5 467.116 59.5Z" stroke="white" stroke-width="4" mask="url(#path-1-outside-1_9_2)"/>
<path d="M498.162 59.5C497.536 59.5 497.004 59.2007 496.567 58.6022C496.13 57.9776 495.912 57.2359 495.912 56.3771V17.4973C495.912 16.7946 495.665 16.4433 495.172 16.4433H495.143C494.63 16.4433 494.374 16.7946 494.374 17.4973V56.3771C494.374 57.2359 494.156 57.9776 493.719 58.6022C493.282 59.2007 492.751 59.5 492.124 59.5C491.497 59.5 490.956 59.2007 490.5 58.6022C490.064 57.9776 489.845 57.2359 489.845 56.3771V16.5604H481.472C480.845 16.5604 480.304 16.2481 479.848 15.6236C479.411 15.025 479.193 14.2963 479.193 13.4375C479.193 12.5788 479.411 11.8371 479.848 11.2125C480.304 10.6139 480.845 10.3147 481.472 10.3147H508.815C509.441 10.3147 509.982 10.6139 510.438 11.2125C510.875 11.8371 511.093 12.5788 511.093 13.4375C511.093 14.2963 510.875 15.025 510.438 15.6236C509.982 16.2481 509.441 16.5604 508.815 16.5604H500.441V56.3771C500.441 57.2359 500.222 57.9776 499.786 58.6022C499.349 59.2007 498.808 59.5 498.162 59.5ZM481.472 8.24576C480.845 8.24576 480.304 7.93347 479.848 7.30889C479.411 6.71034 479.193 5.98167 479.193 5.12288C479.193 4.26409 479.411 3.5224 479.848 2.89783C480.304 2.29928 480.845 2 481.472 2H508.815C509.441 2 509.982 2.29928 510.438 2.89783C510.875 3.5224 511.093 4.26409 511.093 5.12288C511.093 5.98167 510.875 6.71034 510.438 7.30889C509.982 7.93347 509.441 8.24576 508.815 8.24576H481.472Z" stroke="white" stroke-width="4" mask="url(#path-1-outside-1_9_2)"/>
<path d="M523.141 59.5C522.515 59.5 521.973 59.1877 521.518 58.5631C521.081 57.9646 520.863 57.2359 520.863 56.3771V5.08384C520.863 4.22505 521.081 3.49638 521.518 2.89783C521.954 2.29928 522.496 2 523.141 2C523.768 2 524.299 2.31229 524.736 2.93686C525.173 3.53542 525.391 4.25107 525.391 5.08384V56.3771C525.391 57.2359 525.173 57.9646 524.736 58.5631C524.299 59.1877 523.768 59.5 523.141 59.5ZM541.655 59.5C541.028 59.5 540.496 59.1877 540.06 58.5631C539.604 57.9646 539.376 57.2359 539.376 56.3771V36.1955H529.037C528.41 36.1955 527.869 35.8832 527.414 35.2587C526.977 34.6601 526.758 33.9314 526.758 33.0726C526.758 32.2138 526.977 31.4722 527.414 30.8476C527.869 30.249 528.41 29.9498 529.037 29.9498H539.376V27.8809H529.037C528.41 27.8809 527.869 27.5686 527.414 26.944C526.977 26.3454 526.758 25.6168 526.758 24.758C526.758 23.8992 526.977 23.1575 527.414 22.5329C527.869 21.9344 528.41 21.6351 529.037 21.6351H539.376V5.08384C539.376 4.25107 539.594 3.53542 540.031 2.93686C540.468 2.31229 541 2 541.626 2C542.272 2 542.813 2.29928 543.25 2.89783C543.705 3.49638 543.933 4.22505 543.933 5.08384V56.3771C543.933 57.2359 543.705 57.9646 543.25 58.5631C542.813 59.1877 542.281 59.5 541.655 59.5ZM517.074 59.5C516.448 59.5 515.907 59.1877 515.451 58.5631C515.014 57.9646 514.796 57.2359 514.796 56.3771V5.08384C514.796 4.25107 515.014 3.53542 515.451 2.93686C515.888 2.31229 516.419 2 517.046 2C517.692 2 518.233 2.29928 518.669 2.89783C519.125 3.49638 519.353 4.22505 519.353 5.08384V56.3771C519.353 57.2359 519.125 57.9646 518.669 58.5631C518.233 59.1877 517.701 59.5 517.074 59.5ZM547.721 59.5C547.095 59.5 546.563 59.1877 546.126 58.5631C545.671 57.9646 545.443 57.2359 545.443 56.3771V5.08384C545.443 4.25107 545.661 3.53542 546.098 2.93686C546.535 2.31229 547.066 2 547.693 2C548.339 2 548.88 2.29928 549.316 2.89783C549.772 3.49638 550 4.22505 550 5.08384V56.3771C550 57.2359 549.772 57.9646 549.316 58.5631C548.88 59.1877 548.348 59.5 547.721 59.5Z" stroke="white" stroke-width="4" mask="url(#path-1-outside-1_9_2)"/>
<defs>
<linearGradient id="paint0_linear_9_2" x1="276" y1="8.91106" x2="276" y2="64" gradientUnits="userSpaceOnUse">
<stop stop-color="#AD00FF"/>
<stop offset="1" stop-color="#0057FF"/>
</linearGradient>
<linearGradient id="paint1_linear_9_2" x1="276" y1="8.91106" x2="276" y2="64" gradientUnits="userSpaceOnUse">
<stop stop-color="#AD00FF"/>
<stop offset="1" stop-color="#0057FF"/>
</linearGradient>
<linearGradient id="paint2_linear_9_2" x1="276" y1="8.91106" x2="276" y2="64" gradientUnits="userSpaceOnUse">
<stop stop-color="#AD00FF"/>
<stop offset="1" stop-color="#0057FF"/>
</linearGradient>
<linearGradient id="paint3_linear_9_2" x1="276" y1="8.91106" x2="276" y2="64" gradientUnits="userSpaceOnUse">
<stop stop-color="#AD00FF"/>
<stop offset="1" stop-color="#0057FF"/>
</linearGradient>
<linearGradient id="paint4_linear_9_2" x1="276" y1="8.91106" x2="276" y2="64" gradientUnits="userSpaceOnUse">
<stop stop-color="#AD00FF"/>
<stop offset="1" stop-color="#0057FF"/>
</linearGradient>
<linearGradient id="paint5_linear_9_2" x1="276" y1="8.91106" x2="276" y2="64" gradientUnits="userSpaceOnUse">
<stop stop-color="#AD00FF"/>
<stop offset="1" stop-color="#0057FF"/>
</linearGradient>
<linearGradient id="paint6_linear_9_2" x1="276" y1="8.91106" x2="276" y2="64" gradientUnits="userSpaceOnUse">
<stop stop-color="#AD00FF"/>
<stop offset="1" stop-color="#0057FF"/>
</linearGradient>
<linearGradient id="paint7_linear_9_2" x1="276" y1="8.91106" x2="276" y2="64" gradientUnits="userSpaceOnUse">
<stop stop-color="#AD00FF"/>
<stop offset="1" stop-color="#0057FF"/>
</linearGradient>
<linearGradient id="paint8_linear_9_2" x1="276" y1="8.91106" x2="276" y2="64" gradientUnits="userSpaceOnUse">
<stop stop-color="#AD00FF"/>
<stop offset="1" stop-color="#0057FF"/>
</linearGradient>
<linearGradient id="paint9_linear_9_2" x1="276" y1="8.91106" x2="276" y2="64" gradientUnits="userSpaceOnUse">
<stop stop-color="#AD00FF"/>
<stop offset="1" stop-color="#0057FF"/>
</linearGradient>
<linearGradient id="paint10_linear_9_2" x1="276" y1="8.91106" x2="276" y2="64" gradientUnits="userSpaceOnUse">
<stop stop-color="#AD00FF"/>
<stop offset="1" stop-color="#0057FF"/>
</linearGradient>
<linearGradient id="paint11_linear_9_2" x1="276" y1="8.91106" x2="276" y2="64" gradientUnits="userSpaceOnUse">
<stop stop-color="#AD00FF"/>
<stop offset="1" stop-color="#0057FF"/>
</linearGradient>
<linearGradient id="paint12_linear_9_2" x1="276" y1="8.91106" x2="276" y2="64" gradientUnits="userSpaceOnUse">
<stop stop-color="#AD00FF"/>
<stop offset="1" stop-color="#0057FF"/>
</linearGradient>
<linearGradient id="paint13_linear_9_2" x1="276" y1="8.91106" x2="276" y2="64" gradientUnits="userSpaceOnUse">
<stop stop-color="#AD00FF"/>
<stop offset="1" stop-color="#0057FF"/>
</linearGradient>
</defs>
</svg>
